<?xml version="1.0" encoding="UTF-8"?>
<svg version="1.1" xmlns="http://www.w3.org/2000/svg" width="607" height="411">
<path d="M0 0 C2.2618318 -0.00217693 4.52316661 -0.02037476 6.78491211 -0.03930664 C49.68801632 -0.20681937 91.75476027 16.77921506 123.09545898 46.18530273 C123.80122631 47.49835822 124.47837764 48.82830869 125.09545898 50.18530273 C127.12905379 51.4533484 127.12905379 51.4533484 129.09545898 52.18530273 C129.09545898 52.84530273 129.09545898 53.50530273 129.09545898 54.18530273 C129.67811523 54.44311523 130.26077148 54.70092773 130.86108398 54.96655273 C133.27574929 56.2836429 134.91286076 57.73618658 136.84545898 59.68530273 C137.45905273 60.29374023 138.07264648 60.90217773 138.70483398 61.52905273 C140.09545898 63.18530273 140.09545898 63.18530273 140.09545898 65.18530273 C140.65233398 65.41217773 141.20920898 65.63905273 141.78295898 65.87280273 C144.76750648 67.56673509 146.72199944 69.70144972 149.09545898 72.18530273 C150.25944675 73.35464217 151.42625885 74.52117505 152.59545898 75.68530273 C154.56706644 77.65267927 156.52661635 79.62780634 158.47045898 81.62280273 C160.74397141 83.84218391 163.07276857 85.91602423 165.47045898 87.99780273 C169.17027659 91.24897136 172.37424305 94.69413892 175.54858398 98.45092773 C177.14817306 100.34155823 177.14817306 100.34155823 179.59545898 102.18530273 C183.23550729 105.09734138 186.10008626 108.62883714 189.09545898 112.18530273 C189.73483398 111.52530273 190.37420898 110.86530273 191.03295898 110.18530273 C193.41328156 107.79149391 195.91977193 105.58339818 198.47045898 103.37280273 C202.1428249 100.13965667 205.3700884 96.73212981 208.53686523 93.00952148 C213.85094947 86.78977879 213.85094947 86.78977879 217.28295898 85.12280273 C219.6240683 83.91188412 220.13617024 82.58352459 221.09545898 80.18530273 C221.75545898 80.18530273 222.41545898 80.18530273 223.09545898 80.18530273 C223.42545898 79.19530273 223.75545898 78.20530273 224.09545898 77.18530273 C224.75545898 77.18530273 225.41545898 77.18530273 226.09545898 77.18530273 C226.46670898 76.32678711 226.46670898 76.32678711 226.84545898 75.45092773 C228.28862098 72.83519662 229.97762121 71.03756817 232.09545898 68.93530273 C232.79670898 68.22889648 233.49795898 67.52249023 234.22045898 66.79467773 C236.09545898 65.18530273 236.09545898 65.18530273 238.09545898 65.18530273 C238.48217773 64.31131836 238.48217773 64.31131836 238.87670898 63.41967773 C240.19379915 61.00501243 241.64634283 59.36790096 243.59545898 57.43530273 C244.20389648 56.82170898 244.81233398 56.20811523 245.43920898 55.57592773 C247.09545898 54.18530273 247.09545898 54.18530273 249.09545898 54.18530273 C249.32233398 53.62842773 249.54920898 53.07155273 249.78295898 52.49780273 C251.46264733 49.53835184 253.63679184 47.5240349 256.09545898 45.18530273 C256.65233398 44.58717773 257.20920898 43.98905273 257.78295898 43.37280273 C259.09545898 42.18530273 259.09545898 42.18530273 261.09545898 42.18530273 C261.42545898 41.19530273 261.75545898 40.20530273 262.09545898 39.18530273 C268.62314573 34.056406 275.33652259 32.79296051 283.40795898 32.81030273 C284.15198975 32.81118896 284.89602051 32.8120752 285.66259766 32.81298828 C293.47623601 32.98035664 300.08580396 35.03995764 306.09545898 40.18530273 C306.09545898 40.84530273 306.09545898 41.50530273 306.09545898 42.18530273 C306.97911133 42.59522461 306.97911133 42.59522461 307.88061523 43.01342773 C313.78516554 46.13752843 317.87920496 51.12579791 322.09545898 56.18530273 C323.26456103 57.22715558 324.45306372 58.24756059 325.65795898 59.24780273 C331.81790151 64.40558542 335.58911207 70.00794071 336.56420898 78.05249023 C336.76961197 86.02487775 336.54232392 92.90627787 331.09545898 99.18530273 C328.90456012 101.31981818 326.65317645 103.31428421 324.30249023 105.27124023 C321.70260602 107.52600707 319.60872727 110.00288913 317.43530273 112.65795898 C315.557164 114.79892762 313.33157963 116.43266763 311.09545898 118.18530273 C310.53858398 118.92780273 309.98170898 119.67030273 309.40795898 120.43530273 C308.97483398 121.01280273 308.54170898 121.59030273 308.09545898 122.18530273 C307.43545898 122.18530273 306.77545898 122.18530273 306.09545898 122.18530273 C305.43545898 123.50530273 304.77545898 124.82530273 304.09545898 126.18530273 C303.43545898 126.18530273 302.77545898 126.18530273 302.09545898 126.18530273 C301.76545898 127.17530273 301.43545898 128.16530273 301.09545898 129.18530273 C300.43545898 129.18530273 299.77545898 129.18530273 299.09545898 129.18530273 C298.88920898 129.74217773 298.68295898 130.29905273 298.47045898 130.87280273 C296.94704183 133.4349134 295.11318505 134.87863519 292.79467773 136.70874023 C290.89688734 138.35785465 289.34122704 140.13911772 287.72045898 142.06030273 C284.68511889 145.63646066 281.40553811 148.6557481 277.79467773 151.64233398 C275.86277344 153.27098257 275.86277344 153.27098257 274.09545898 156.18530273 C273.43545898 156.18530273 272.77545898 156.18530273 272.09545898 156.18530273 C271.88920898 156.74217773 271.68295898 157.29905273 271.47045898 157.87280273 C270.12699146 160.13227085 269.04388196 161.18516834 267.03295898 162.81030273 C264.08721186 164.8564967 264.08721186 164.8564967 263.09545898 167.18530273 C262.43545898 167.18530273 261.77545898 167.18530273 261.09545898 167.18530273 C260.86858398 167.76280273 260.64170898 168.34030273 260.40795898 168.93530273 C259.09545898 171.18530273 259.09545898 171.18530273 256.40795898 172.99780273 C255.64483398 173.71967773 254.88170898 174.44155273 254.09545898 175.18530273 C254.15906689 178.88584683 254.15906689 178.88584683 255.09545898 182.18530273 C255.75545898 182.18530273 256.41545898 182.18530273 257.09545898 182.18530273 C264.75790016 195.88481878 271.49997249 209.87286537 277.78295898 224.24780273 C278.058909 224.87393463 278.33485901 225.50006653 278.61917114 226.14517212 C284.08310005 238.57180398 288.52516617 251.19190878 291.84545898 264.37280273 C292.05299805 265.17782227 292.26053711 265.9828418 292.47436523 266.81225586 C293.02051799 268.93520446 293.56062699 271.05947793 294.09545898 273.18530273 C294.36350342 274.16418457 294.36350342 274.16418457 294.63696289 275.1628418 C298.28514636 291.25525494 296.38818153 307.59985764 289.09545898 322.18530273 C288.43545898 322.18530273 287.77545898 322.18530273 287.09545898 322.18530273 C286.76545898 323.83530273 286.43545898 325.48530273 286.09545898 327.18530273 C284.35498047 327.91430664 284.35498047 327.91430664 282.09545898 328.18530273 C280.06835938 326.72583008 280.06835938 326.72583008 277.94311523 324.52124023 C277.16645508 323.7284668 276.38979492 322.93569336 275.58959961 322.11889648 C274.7871582 321.27456055 273.9847168 320.43022461 273.15795898 319.56030273 C272.35938477 318.73916992 271.56081055 317.91803711 270.73803711 317.07202148 C268.51514325 314.78466923 266.30492598 312.48561024 264.09545898 310.18530273 C260.75793055 306.7828224 257.3205344 303.51506304 253.82836914 300.27368164 C244.32582307 291.44259741 235.14866096 282.31000779 226.03173828 273.08447266 C225.52755875 272.57606339 225.02337921 272.06765411 224.50392151 271.5438385 C223.12370781 270.15176426 221.74645051 268.7567606 220.36938477 267.36157227 C218.0978033 265.06079739 218.0978033 265.06079739 215.09545898 263.18530273 C215.09545898 262.52530273 215.09545898 261.86530273 215.09545898 261.18530273 C214.49733398 260.91717773 213.89920898 260.64905273 213.28295898 260.37280273 C211.09698045 259.18612867 209.68213305 258.08931161 208.09545898 256.18530273 C208.09545898 255.52530273 208.09545898 254.86530273 208.09545898 254.18530273 C206.77545898 253.52530273 205.45545898 252.86530273 204.09545898 252.18530273 C204.09545898 251.52530273 204.09545898 250.86530273 204.09545898 250.18530273 C203.51924805 249.9390918 202.94303711 249.69288086 202.34936523 249.43920898 C199.74291013 247.9891707 198.0745756 246.29029937 196.03295898 244.12280273 C193.05031946 240.93260586 193.05031946 240.93260586 189.09545898 239.18530273 C188.76545898 240.17530273 188.43545898 241.16530273 188.09545898 242.18530273 C186.45578689 243.55169615 184.78435771 244.88024463 183.09545898 246.18530273 C181.4067202 247.82960103 179.74240384 249.49914491 178.09545898 251.18530273 C177.5244043 251.74604492 176.95334961 252.30678711 176.36499023 252.88452148 C173.803792 255.4020319 171.36074207 257.84300197 169.15795898 260.68530273 C166.71458116 263.64697282 163.96179817 265.99629772 161.05249023 268.48999023 C156.92979626 272.06134589 153.48051061 275.9266894 150.09545898 280.18530273 C147.97045898 282.49780273 147.97045898 282.49780273 146.09545898 284.18530273 C145.43545898 284.18530273 144.77545898 284.18530273 144.09545898 284.18530273 C144.09545898 284.84530273 144.09545898 285.50530273 144.09545898 286.18530273 C142.52124023 287.73608398 142.52124023 287.73608398 140.40795898 289.49780273 C136.53747855 292.7414257 133.00117217 296.21943044 129.48681641 299.84472656 C121.4726294 308.11093911 113.57521963 315.60063944 104.09545898 322.18530273 C102.88889648 323.08442383 102.88889648 323.08442383 101.65795898 324.00170898 C69.51627461 347.63219075 28.91083746 353.77923742 -9.90454102 353.18530273 C-11.1871582 353.16854492 -12.46977539 353.15178711 -13.79125977 353.13452148 C-41.97645368 351.94455552 -75.70173569 340.69358076 -97.90454102 323.18530273 C-99.37600586 322.10442383 -99.37600586 322.10442383 -100.87719727 321.00170898 C-106.18937793 317.09821068 -111.32661983 313.09924606 -116.21704102 308.67749023 C-117.69288049 307.37246551 -119.26195671 306.17446126 -120.84204102 304.99780273 C-123.15885541 302.96181432 -123.23269835 302.06462846 -123.90454102 299.18530273 C-124.5065332 298.8875293 -125.10852539 298.58975586 -125.72875977 298.28295898 C-136.53943093 292.82910154 -144.93831362 275.9054199 -150.54125977 265.61889648 C-152.44228512 262.22537558 -154.50288086 258.93517364 -156.57250977 255.64233398 C-158.06630657 252.88691407 -158.95064381 250.16947922 -159.90454102 247.18530273 C-160.85038747 244.82609143 -161.80962135 242.47221954 -162.77954102 240.12280273 C-168.96138109 224.68321611 -171.65050498 209.64243083 -173.90454102 193.18530273 C-174.0127417 192.40695068 -174.12094238 191.62859863 -174.23242188 190.82666016 C-177.44030606 166.73462002 -173.90409716 137.75561814 -164.90454102 115.18530273 C-164.62094727 114.47374023 -164.33735352 113.76217773 -164.04516602 113.02905273 C-163.06014022 110.71337805 -161.99859031 108.45179116 -160.90454102 106.18530273 C-160.62594238 105.6076416 -160.34734375 105.02998047 -160.06030273 104.43481445 C-155.70469602 95.45010419 -151.07446972 86.73204563 -145.90454102 78.18530273 C-145.38504883 77.25073242 -144.86555664 76.31616211 -144.33032227 75.35327148 C-143.85981445 74.6378418 -143.38930664 73.92241211 -142.90454102 73.18530273 C-142.24454102 73.18530273 -141.58454102 73.18530273 -140.90454102 73.18530273 C-140.52555664 72.36352539 -140.52555664 72.36352539 -140.13891602 71.52514648 C-136.33638098 64.31717659 -131.36569265 58.10808493 -124.90454102 53.18530273 C-124.24454102 52.19530273 -123.58454102 51.20530273 -122.90454102 50.18530273 C-122.24454102 50.18530273 -121.58454102 50.18530273 -120.90454102 50.18530273 C-120.65317383 49.58975586 -120.40180664 48.99420898 -120.14282227 48.38061523 C-118.73392064 45.88281488 -117.39140828 44.75816576 -115.09204102 43.06030273 C-114.29282227 42.46217773 -113.49360352 41.86405273 -112.67016602 41.24780273 C-111.75750977 40.56717773 -110.84485352 39.88655273 -109.90454102 39.18530273 C-108.83478202 38.35460349 -107.76716788 37.52113674 -106.70141602 36.68530273 C-100.96245012 32.19021339 -95.26999469 27.76725663 -88.90454102 24.18530273 C-87.87586914 23.59362305 -86.84719727 23.00194336 -85.78735352 22.39233398 C-71.02064843 14.09244141 -55.39691945 8.02420664 -38.90454102 4.18530273 C-37.7740332 3.89913086 -36.64352539 3.61295898 -35.47875977 3.31811523 C-23.68878477 0.4087207 -12.09367562 -0.00129635 0 0 Z M-33.90454102 97.18530273 C-34.84426758 97.67385742 -35.78399414 98.16241211 -36.75219727 98.66577148 C-42.10414916 101.46780283 -47.18212528 104.40737015 -51.90454102 108.18530273 C-51.90454102 108.84530273 -51.90454102 109.50530273 -51.90454102 110.18530273 C-52.46141602 110.43280273 -53.01829102 110.68030273 -53.59204102 110.93530273 C-56.32865015 112.41455091 -58.58104971 114.11997713 -60.90454102 116.18530273 C-60.90454102 116.84530273 -60.90454102 117.50530273 -60.90454102 118.18530273 C-61.56454102 118.18530273 -62.22454102 118.18530273 -62.90454102 118.18530273 C-63.23454102 119.50530273 -63.56454102 120.82530273 -63.90454102 122.18530273 C-64.56454102 122.18530273 -65.22454102 122.18530273 -65.90454102 122.18530273 C-79.49251097 138.54521856 -86.6466156 159.99962041 -84.71850586 181.23413086 C-83.05466731 196.61870723 -79.05089326 214.96570204 -68.90454102 227.18530273 C-68.24454102 227.18530273 -67.58454102 227.18530273 -66.90454102 227.18530273 C-66.53329102 227.98967773 -66.53329102 227.98967773 -66.15454102 228.81030273 C-61.16412864 238.29208625 -52.29704504 247.72113473 -41.90454102 251.18530273 C-41.57454102 251.84530273 -41.24454102 252.50530273 -40.90454102 253.18530273 C-21.29609838 264.07888197 4.29372111 266.80491398 26.09545898 261.18530273 C30.25869933 259.81237835 34.15356128 258.09799694 38.09545898 256.18530273 C38.99748047 255.75556152 38.99748047 255.75556152 39.91772461 255.31713867 C48.87578509 251.0028123 55.96079664 246.19578583 63.09545898 239.18530273 C64.96908831 237.496281 66.84423194 235.80893835 68.72045898 234.12280273 C75.04923915 228.31667408 81.14817253 222.27060035 87.23944092 216.21755981 C88.35150704 215.11299914 89.46515599 214.01002976 90.5803833 212.90866089 C92.15967649 211.34720004 93.73201145 209.77906016 95.30249023 208.20874023 C96.22521729 207.29012207 97.14794434 206.37150391 98.09863281 205.42504883 C100.31728201 203.43659918 100.31728201 203.43659918 100.09545898 201.18530273 C101.08545898 200.85530273 102.07545898 200.52530273 103.09545898 200.18530273 C104.31534809 198.7346238 105.53116383 197.27990924 106.70874023 195.79467773 C108.8824309 193.27197195 111.54141449 191.31367315 114.09545898 189.18530273 C114.92045898 188.19530273 115.74545898 187.20530273 116.59545898 186.18530273 C118.50535822 183.89342365 120.06129476 182.30881865 122.34545898 180.49780273 C125.30946877 178.41421013 125.30946877 178.41421013 126.09545898 175.18530273 C122.93306317 171.99354181 119.7647714 168.80769463 116.59545898 165.62280273 C115.70858398 164.72754883 114.82170898 163.83229492 113.90795898 162.90991211 C113.03139648 162.03012695 112.15483398 161.1503418 111.25170898 160.24389648 C110.45571289 159.44266357 109.6597168 158.64143066 108.83959961 157.81591797 C106.68977923 155.75503589 104.51579809 153.79984707 102.26269531 151.85693359 C98.06738762 148.21411579 94.15718717 144.34104029 90.26342773 140.38061523 C88.79026036 138.89479941 87.31694854 137.40912679 85.84350586 135.92358398 C83.56438069 133.61974158 81.28691031 131.31431227 79.01220703 129.00610352 C64.71368053 114.19098342 64.71368053 114.19098342 48.09545898 102.18530273 C46.9449707 101.46020508 46.9449707 101.46020508 45.77124023 100.72045898 C44.99135742 100.23448242 44.21147461 99.74850586 43.40795898 99.24780273 C42.6409668 98.7644043 41.87397461 98.28100586 41.08374023 97.78295898 C33.22093403 93.57918416 25.73937798 91.47142505 16.90795898 90.43530273 C15.96243164 90.31026367 15.0169043 90.18522461 14.04272461 90.05639648 C-1.68510207 88.06164773 -19.97062654 89.06290596 -33.90454102 97.18530273 Z " fill="#2D3D4F" transform="translate(221.904541015625,28.814697265625)"/>
<path d="M0 0 C2.2618318 -0.00217693 4.52316661 -0.02037476 6.78491211 -0.03930664 C49.68801632 -0.20681937 91.75476027 16.77921506 123.09545898 46.18530273 C123.80122631 47.49835822 124.47837764 48.82830869 125.09545898 50.18530273 C127.12905379 51.4533484 127.12905379 51.4533484 129.09545898 52.18530273 C129.09545898 52.84530273 129.09545898 53.50530273 129.09545898 54.18530273 C129.67811523 54.44311523 130.26077148 54.70092773 130.86108398 54.96655273 C133.27574929 56.2836429 134.91286076 57.73618658 136.84545898 59.68530273 C137.45905273 60.29374023 138.07264648 60.90217773 138.70483398 61.52905273 C140.09545898 63.18530273 140.09545898 63.18530273 140.09545898 65.18530273 C140.65233398 65.41217773 141.20920898 65.63905273 141.78295898 65.87280273 C144.76750648 67.56673509 146.72199944 69.70144972 149.09545898 72.18530273 C150.25944675 73.35464217 151.42625885 74.52117505 152.59545898 75.68530273 C154.56706644 77.65267927 156.52661635 79.62780634 158.47045898 81.62280273 C160.74397141 83.84218391 163.07276857 85.91602423 165.47045898 87.99780273 C169.17027659 91.24897136 172.37424305 94.69413892 175.54858398 98.45092773 C177.14817306 100.34155823 177.14817306 100.34155823 179.59545898 102.18530273 C183.23550729 105.09734138 186.10008626 108.62883714 189.09545898 112.18530273 C188.43545898 113.50530273 187.77545898 114.82530273 187.09545898 116.18530273 C184.90795898 116.49780273 184.90795898 116.49780273 182.09545898 116.18530273 C179.78295898 114.12280273 179.78295898 114.12280273 177.09545898 111.18530273 C172.35106556 106.60139619 168.25339566 103.69409175 162.09545898 101.18530273 C160.09545898 99.51863607 158.09545898 97.8519694 156.09545898 96.18530273 C154.38565787 95.44438892 152.67452445 94.70603115 150.95092773 93.99780273 C148.02478474 92.71646012 145.33776656 91.06762867 142.59545898 89.43530273 C136.37796589 85.79703049 130.00087455 82.69620534 123.44702148 79.71655273 C120.79761756 78.50610246 118.18980291 77.25751663 115.59545898 75.93530273 C103.65028653 69.96271651 90.86911105 65.98344845 78.09545898 62.18530273 C78.09545898 61.52530273 78.09545898 60.86530273 78.09545898 60.18530273 C61.66864662 56.43349991 45.55608975 53.81246528 28.65795898 53.81030273 C27.456875 53.80885254 26.25579102 53.80740234 25.01831055 53.8059082 C18.91256777 53.88212294 13.19508047 54.31984895 7.24560547 55.72436523 C5.01797534 56.20191328 2.86682276 56.411839 0.59545898 56.56030273 C-3.87192052 56.98085533 -7.57609736 58.50528234 -11.64282227 60.34545898 C-13.90454102 61.18530273 -13.90454102 61.18530273 -17.90454102 61.18530273 C-18.14817383 61.80405273 -18.39180664 62.42280273 -18.64282227 63.06030273 C-20.19050797 65.66693128 -21.29772716 66.10797691 -24.09204102 67.18530273 C-30.95626425 70.03439539 -35.80229464 72.76982452 -40.50219727 78.65405273 C-42.36578235 80.6889423 -44.33572027 81.26316196 -46.90454102 82.18530273 C-51.18948908 86.16110186 -54.78870024 90.60420969 -58.41821289 95.16381836 C-59.53791121 96.53993614 -60.71691918 97.8673578 -61.90454102 99.18530273 C-62.56454102 99.18530273 -63.22454102 99.18530273 -63.90454102 99.18530273 C-64.18297852 100.36092773 -64.18297852 100.36092773 -64.46704102 101.56030273 C-65.79014763 104.89683245 -67.05322335 106.77556348 -69.21704102 109.56030273 C-74.00502337 116.09119079 -75.82728422 123.46977749 -77.90454102 131.18530273 C-78.56454102 131.18530273 -79.22454102 131.18530273 -79.90454102 131.18530273 C-80.09016602 132.39186523 -80.09016602 132.39186523 -80.27954102 133.62280273 C-80.75266737 136.31962296 -81.31855448 138.90656703 -81.96704102 141.56030273 C-83.17397858 146.89244481 -83.66204013 151.91280539 -81.90454102 157.18530273 C-82.24438477 159.49780273 -82.24438477 159.49780273 -82.84204102 162.18530273 C-85.79091416 177.6971834 -82.90799632 193.6818533 -77.52954102 208.37280273 C-77.24973389 209.13786133 -76.96992676 209.90291992 -76.68164062 210.69116211 C-74.87774075 215.34098831 -72.65929182 219.4140147 -69.87084961 223.54980469 C-68.90454102 225.18530273 -68.90454102 225.18530273 -68.90454102 227.18530273 C-68.24454102 227.18530273 -67.58454102 227.18530273 -66.90454102 227.18530273 C-65.05604332 229.61202508 -63.42749792 232.15356456 -61.75610352 234.70483398 C-59.97799648 237.0868972 -58.27377655 238.44751544 -55.90454102 240.18530273 C-55.90454102 240.84530273 -55.90454102 241.50530273 -55.90454102 242.18530273 C-55.13110352 242.52561523 -55.13110352 242.52561523 -54.34204102 242.87280273 C-51.56675476 244.36718764 -49.13127396 246.15549098 -46.58813477 248.00952148 C-44.77340656 249.27688387 -42.93063706 250.29382048 -40.90454102 251.18530273 C-40.90454102 251.84530273 -40.90454102 252.50530273 -40.90454102 253.18530273 C-40.26516602 253.26780273 -39.62579102 253.35030273 -38.96704102 253.43530273 C-35.47375193 254.2908021 -32.4409747 255.64290474 -29.18579102 257.15014648 C-12.63942646 264.65834273 11.84076993 264.88611475 29.02124023 259.22045898 C39.11901318 255.24822247 48.84722268 249.83602776 58.09545898 244.18530273 C54.58531788 254.71572605 35.54613491 263.35913964 26.09545898 268.18530273 C25.30268555 268.61713867 24.50991211 269.04897461 23.69311523 269.49389648 C9.68208072 276.59901825 -7.35010572 279.33129873 -22.94360352 279.35327148 C-24.2085817 279.35826408 -24.2085817 279.35826408 -25.49911499 279.36335754 C-27.27569031 279.36839222 -29.05227498 279.37076695 -30.82885742 279.37060547 C-33.50138575 279.37277983 -36.17349237 279.39093931 -38.84594727 279.40991211 C-48.72214359 279.44345285 -58.15468458 278.92293674 -67.90454102 277.18530273 C-69.06727539 276.99766357 -70.23000977 276.81002441 -71.42797852 276.61669922 C-74.98758648 276.04049496 -78.53967737 275.42946816 -82.09204102 274.81030273 C-83.86224609 274.51639648 -83.86224609 274.51639648 -85.66821289 274.21655273 C-95.21740661 272.54663286 -103.88431214 269.74916818 -112.65454102 265.62280273 C-115.55761453 264.26557486 -118.41951069 262.98299322 -121.40454102 261.81030273 C-143.15973669 251.70967617 -156.97623128 234.94359962 -167.90454102 214.18530273 C-168.23454102 215.83530273 -168.56454102 217.48530273 -168.90454102 219.18530273 C-169.23454102 219.18530273 -169.56454102 219.18530273 -169.90454102 219.18530273 C-170.55227349 215.01892902 -171.19738373 210.85215328 -171.84204102 206.68530273 C-172.02444336 205.51225586 -172.2068457 204.33920898 -172.39477539 203.13061523 C-176.83777677 174.37227902 -175.82472685 142.57243545 -164.90454102 115.18530273 C-164.62094727 114.47374023 -164.33735352 113.76217773 -164.04516602 113.02905273 C-163.06014022 110.71337805 -161.99859031 108.45179116 -160.90454102 106.18530273 C-160.62594238 105.6076416 -160.34734375 105.02998047 -160.06030273 104.43481445 C-155.70469602 95.45010419 -151.07446972 86.73204563 -145.90454102 78.18530273 C-145.38504883 77.25073242 -144.86555664 76.31616211 -144.33032227 75.35327148 C-143.85981445 74.6378418 -143.38930664 73.92241211 -142.90454102 73.18530273 C-142.24454102 73.18530273 -141.58454102 73.18530273 -140.90454102 73.18530273 C-140.52555664 72.36352539 -140.52555664 72.36352539 -140.13891602 71.52514648 C-136.33638098 64.31717659 -131.36569265 58.10808493 -124.90454102 53.18530273 C-124.24454102 52.19530273 -123.58454102 51.20530273 -122.90454102 50.18530273 C-122.24454102 50.18530273 -121.58454102 50.18530273 -120.90454102 50.18530273 C-120.65317383 49.58975586 -120.40180664 48.99420898 -120.14282227 48.38061523 C-118.73392064 45.88281488 -117.39140828 44.75816576 -115.09204102 43.06030273 C-114.29282227 42.46217773 -113.49360352 41.86405273 -112.67016602 41.24780273 C-111.75750977 40.56717773 -110.84485352 39.88655273 -109.90454102 39.18530273 C-108.83478202 38.35460349 -107.76716788 37.52113674 -106.70141602 36.68530273 C-100.96245012 32.19021339 -95.26999469 27.76725663 -88.90454102 24.18530273 C-87.87586914 23.59362305 -86.84719727 23.00194336 -85.78735352 22.39233398 C-71.02064843 14.09244141 -55.39691945 8.02420664 -38.90454102 4.18530273 C-37.7740332 3.89913086 -36.64352539 3.61295898 -35.47875977 3.31811523 C-23.68878477 0.4087207 -12.09367562 -0.00129635 0 0 Z " fill="#EFC30E" transform="translate(221.904541015625,28.814697265625)"/>
<path d="M0 0 C0 0.66 0 1.32 0 2 C1.7325 2.1546875 1.7325 2.1546875 3.5 2.3125 C7.20088561 2.77916158 10.35392976 3.72219456 13.80078125 5.1171875 C16.34171128 6.13717007 18.91607232 7.0322343 21.5 7.9375 C25.35215631 9.33541757 28.94965625 10.90220089 32.57421875 12.80078125 C35.99578091 14.49227816 39.49717107 15.98562956 43 17.5 C51.61371882 21.24509514 59.77555283 25.37333343 67.90283203 30.09545898 C70.62597836 31.67300847 73.34837753 33.17054644 76.17578125 34.5546875 C79.45841036 36.23459451 82.11139049 38.29811138 84.97265625 40.59765625 C86.95846757 42.09505063 86.95846757 42.09505063 89.3515625 42.87109375 C92.81984084 44.34946018 95.46923645 46.58167134 98.3125 49 C98.86228516 49.45117188 99.41207031 49.90234375 99.97851562 50.3671875 C101.36189971 51.52888643 102.68650591 52.75982695 104 54 C104 54.66 104 55.32 104 56 C105.32 56.33 106.64 56.66 108 57 C103.90477364 61.92706922 99.65704622 66.27806601 94.76953125 70.41796875 C92.84933743 72.04672941 92.84933743 72.04672941 91 74.5 C88.59950808 77.5006149 85.8575725 79.81934753 82.9453125 82.3125 C80.50585763 84.42865362 78.25405947 86.68814413 76 89 C75.45601562 89.53367187 74.91203125 90.06734375 74.3515625 90.6171875 C70.8438343 94.06364534 67.571943 97.61297475 64.40234375 101.37109375 C61.61530032 104.6084116 58.66131232 107.47710188 55.3125 110.125 C52.80846331 111.96561073 52.80846331 111.96561073 51 115 C50.34 115 49.68 115 49 115 C49 115.66 49 116.32 49 117 C46.34781312 115.67390656 44.97930918 113.59701632 43.09765625 111.359375 C40.37693184 108.29919335 37.51675015 105.39798506 34.625 102.5 C34.09608154 101.96665039 33.56716309 101.43330078 33.0222168 100.88378906 C30.19613589 98.06757606 27.3072799 95.3774556 24.27612305 92.78271484 C20.04915589 89.09804858 16.09775276 85.19237891 12.16796875 81.1953125 C10.69480138 79.70949667 9.22148956 78.22382406 7.74804688 76.73828125 C5.46892171 74.43443885 3.19145133 72.12900953 0.91674805 69.82080078 C-13.38177845 55.00568068 -13.38177845 55.00568068 -30 43 C-31.15048828 42.27490234 -31.15048828 42.27490234 -32.32421875 41.53515625 C-33.10410156 41.04917969 -33.88398438 40.56320313 -34.6875 40.0625 C-35.45449219 39.57910156 -36.22148437 39.09570312 -37.01171875 38.59765625 C-44.64223324 34.51807399 -52.05645046 32.26019341 -60.625 31.1875 C-61.58140381 31.0635083 -62.53780762 30.9395166 -63.52319336 30.81176758 C-71.8815426 29.82929618 -79.64934016 29.9787613 -88 31 C-89.14984375 31.11472656 -90.2996875 31.22945312 -91.484375 31.34765625 C-99.09270148 32.2674422 -105.24518992 34.43197441 -112 38 C-112.96292969 38.50144531 -113.92585938 39.00289062 -114.91796875 39.51953125 C-122.06108216 43.32726377 -128.38238135 47.09429834 -134 53 C-135.62836738 54.7041054 -137.28769752 56.38025441 -139 58 C-139.66 58 -140.32 58 -141 58 C-141.33 59.32 -141.66 60.64 -142 62 C-142.66 62 -143.32 62 -144 62 C-144.27328125 62.58007812 -144.5465625 63.16015625 -144.828125 63.7578125 C-145.98204568 65.96564739 -147.29094985 67.8590006 -148.75 69.875 C-152.78094833 75.82779411 -155.30330663 82.36779613 -158 89 C-158.99068951 91.33745294 -159.99457027 93.66882665 -161 96 C-161.33 96 -161.66 96 -162 96 C-162.75214626 87.1204955 -160.51122918 79.40813341 -158 71 C-157.34 71 -156.68 71 -156 71 C-155.86851562 70.12859375 -155.73703125 69.2571875 -155.6015625 68.359375 C-154.01902316 59.52181765 -151.03611944 52.29622634 -145.5859375 45.15625 C-144.11814878 43.16063578 -143.09930796 41.20793208 -142 39 C-140.86257636 37.86257636 -139.72106484 36.72880714 -138.5546875 35.62109375 C-135.80796703 32.75705104 -133.46988205 29.5523255 -131.0625 26.40234375 C-128.28596999 23.16831732 -125.55935196 20.54577318 -121.5 19.125 C-118.57244454 17.80760004 -117.31234933 16.00446561 -115.3671875 13.515625 C-111.44756038 9.17043836 -105.23174139 7.15834035 -99.91796875 5.02734375 C-97.6714318 4.01798724 -97.6714318 4.01798724 -96 1 C-87.41236053 -3.1942529 -78.69714171 -4.74444033 -69.30078125 -5.640625 C-47.12113591 -8.05545029 -21.20746063 -9.1256052 0 0 Z " fill="#989897" transform="translate(300,89)"/>
<path d="M0 0 C3 3.75 3 3.75 3 6 C3.66 6 4.32 6 5 6 C12.66244118 19.69951605 19.40451351 33.68756263 25.6875 48.0625 C26.10142502 49.00169785 26.10142502 49.00169785 26.52371216 49.95986938 C31.98764106 62.38650125 36.42970719 75.00660605 39.75 88.1875 C39.95753906 88.99251953 40.16507813 89.79753906 40.37890625 90.62695312 C40.925059 92.74990173 41.465168 94.8741752 42 97 C42.17869629 97.65258789 42.35739258 98.30517578 42.54150391 98.97753906 C46.18968738 115.06995221 44.29272255 131.4145549 37 146 C36.34 146 35.68 146 35 146 C34.67 147.65 34.34 149.3 34 151 C32.25952148 151.72900391 32.25952148 151.72900391 30 152 C27.97290039 150.54052734 27.97290039 150.54052734 25.84765625 148.3359375 C25.07099609 147.54316406 24.29433594 146.75039063 23.49414062 145.93359375 C22.29047852 144.66708984 22.29047852 144.66708984 21.0625 143.375 C20.26392578 142.55386719 19.46535156 141.73273438 18.64257812 140.88671875 C16.41968427 138.5993665 14.20946699 136.3003075 12 134 C8.66247156 130.59751966 5.22507541 127.3297603 1.73291016 124.08837891 C-7.76963591 115.25729468 -16.94679803 106.12470505 -26.0637207 96.89916992 C-26.56790024 96.39076065 -27.07207977 95.88235138 -27.59153748 95.35853577 C-28.97175117 93.96646152 -30.34900848 92.57145787 -31.72607422 91.17626953 C-33.99765568 88.87549466 -33.99765568 88.87549466 -37 87 C-37 86.34 -37 85.68 -37 85 C-37.598125 84.731875 -38.19625 84.46375 -38.8125 84.1875 C-40.99847854 83.00082594 -42.41332594 81.90400887 -44 80 C-44 79.34 -44 78.68 -44 78 C-45.32 77.34 -46.64 76.68 -48 76 C-48 75.34 -48 74.68 -48 74 C-48.57492187 73.7525 -49.14984375 73.505 -49.7421875 73.25 C-52.34105314 71.81118165 -54.06296019 70.13260391 -56.125 68 C-57.14980469 66.948125 -57.14980469 66.948125 -58.1953125 65.875 C-58.79085938 65.25625 -59.38640625 64.6375 -60 64 C-60.66 63.34 -61.32 62.68 -62 62 C-61.34 62 -60.68 62 -60 62 C-59.93039062 61.42765625 -59.86078125 60.8553125 -59.7890625 60.265625 C-58.69998183 57.13856169 -56.89802717 55.86903792 -54.375 53.75 C-50.40546448 50.3070933 -46.90130068 46.7754008 -43.51171875 42.76953125 C-41.46790389 40.37715881 -39.25219003 38.19588528 -37 36 C-35.83198224 34.83468599 -34.66541016 33.66792182 -33.5 32.5 C-28 27 -22.5 21.5 -17 16 C-16.22269531 15.21238281 -15.44539063 14.42476562 -14.64453125 13.61328125 C-11.72442522 10.72768165 -8.72317465 7.95022213 -5.6875 5.1875 C-5.13771484 4.68541016 -4.58792969 4.18332031 -4.02148438 3.66601562 C-2.68194761 2.44296032 -1.34111008 1.22132992 0 0 Z " fill="#999998" transform="translate(474,205)"/>
<path d="M0 0 C0 0.99 0 1.98 0 3 C-3.05642246 5.9913922 -6.57228696 8.44914379 -10 11 C-10.84949219 11.639375 -11.69898438 12.27875 -12.57421875 12.9375 C-17.79298309 16.73892332 -22.98116869 19.65934338 -29 22 C-28.67 20.68 -28.34 19.36 -28 18 C-28.99 18.28875 -29.98 18.5775 -31 18.875 C-32.32966161 19.26281797 -33.66405314 19.63441995 -35 20 C-36.15757812 20.34804688 -37.31515625 20.69609375 -38.5078125 21.0546875 C-43.92938413 22.39565466 -49.31957172 22.2916137 -54.875 22.25 C-55.89980469 22.25773437 -56.92460937 22.26546875 -57.98046875 22.2734375 C-74.76922771 22.23077229 -74.76922771 22.23077229 -78 19 C-79.51469448 18.76807135 -81.03754562 18.58784762 -82.5625 18.4375 C-83.38878906 18.35371094 -84.21507812 18.26992188 -85.06640625 18.18359375 C-86.02353516 18.09271484 -86.02353516 18.09271484 -87 18 C-87 16.68 -87 15.36 -87 14 C-87.66 13.67 -88.32 13.34 -89 13 C-86.41690901 13.4428156 -84.12057428 13.94923188 -81.69921875 14.96875 C-65.58548389 21.12508285 -40.92717961 20.09122165 -25.125 13.875 C-16.59105731 10.05179368 -7.31076949 5.88516944 0 0 Z " fill="#E9C740" transform="translate(279,273)"/>
<path d="M0 0 C2.2618318 -0.00217693 4.52316661 -0.02037476 6.78491211 -0.03930664 C25.99522544 -0.11431222 43.75475138 3.3511797 61.97045898 9.31030273 C62.75018066 9.56392578 63.52990234 9.81754883 64.33325195 10.07885742 C69.84945846 11.93930221 69.84945846 11.93930221 72.09545898 14.18530273 C56.42540822 12.51525197 56.42540822 12.51525197 55.09545898 11.18530273 C52.32625259 10.64859987 49.54600813 10.22041533 46.75952148 9.78295898 C44.09545898 9.18530273 44.09545898 9.18530273 41.09545898 7.18530273 C37.95323932 7.500369 37.95323932 7.500369 35.09545898 8.18530273 C34.60045898 6.20530273 34.60045898 6.20530273 34.09545898 4.18530273 C33.06485352 4.20270508 33.06485352 4.20270508 32.01342773 4.22045898 C31.11237305 4.22948242 30.21131836 4.23850586 29.28295898 4.24780273 C27.94297852 4.26520508 27.94297852 4.26520508 26.57592773 4.28295898 C24.09545898 4.18530273 24.09545898 4.18530273 21.09545898 3.18530273 C19.75201885 3.09494309 18.40458012 3.05741849 17.05810547 3.0559082 C15.84555336 3.05117996 15.84555336 3.05117996 14.60850525 3.0463562 C13.30073875 3.04939255 13.30073875 3.04939255 11.96655273 3.05249023 C11.06228043 3.05153351 10.15800812 3.05057678 9.22633362 3.04959106 C7.30892874 3.04891017 5.39152155 3.05075814 3.47412109 3.05493164 C0.56854926 3.06023774 -2.3368649 3.05500622 -5.24243164 3.04858398 C-7.11027052 3.04924563 -8.9781093 3.05052858 -10.84594727 3.05249023 C-12.13245934 3.04945389 -12.13245934 3.04945389 -13.44496155 3.0463562 C-19.31641392 3.06864308 -25.07346533 3.50460222 -30.90454102 4.18530273 C-30.90454102 4.84530273 -30.90454102 5.50530273 -30.90454102 6.18530273 C-31.70118164 6.24588867 -32.49782227 6.30647461 -33.31860352 6.36889648 C-41.14786799 6.98198139 -41.14786799 6.98198139 -48.90454102 8.18530273 C-45.6598766 4.94063832 -41.34955562 4.64065761 -36.96704102 3.62280273 C-35.61642578 3.29119141 -35.61642578 3.29119141 -34.23852539 2.95288086 C-22.87964134 0.26923302 -11.61964145 -0.00124554 0 0 Z " fill="#E8C745" transform="translate(221.904541015625,28.814697265625)"/>
<path d="M0 0 C0 0.33 0 0.66 0 1 C-1.08410156 0.9278125 -2.16820312 0.855625 -3.28515625 0.78125 C-19.18883893 -0.18474892 -35.07484856 -0.09995508 -51 0 C-51 0.66 -51 1.32 -51 2 C-52.68029297 2.39832031 -52.68029297 2.39832031 -54.39453125 2.8046875 C-55.86726338 3.16114496 -57.33991551 3.51793308 -58.8125 3.875 C-59.55048828 4.04902344 -60.28847656 4.22304687 -61.04882812 4.40234375 C-64.49717037 5.24492511 -67.01928362 6.01285575 -70 8 C-72.02609557 8.69313796 -74.07075102 9.33288062 -76.125 9.9375 C-77.28 10.28683594 -78.435 10.63617188 -79.625 10.99609375 C-81.6636999 11.60251258 -83.70474884 12.2012138 -85.75 12.78515625 C-90.3905861 14.15038189 -90.3905861 14.15038189 -94.0625 17.1875 C-94.5265625 18.0846875 -94.5265625 18.0846875 -95 19 C-96.32 18.67 -97.64 18.34 -99 18 C-94.75037273 13.97403733 -90.91134771 11.96380444 -85.3671875 10.08984375 C-82.88926643 9.11971113 -82.88926643 9.11971113 -81.0859375 7.04296875 C-74.02457018 0.12706031 -61.73076543 -0.74219262 -52.30078125 -1.640625 C-34.75389197 -3.55105555 -17.43180153 -4.23812251 0 0 Z " fill="#C0AB56" transform="translate(283,85)"/>
<path d="M0 0 C2.75026417 -0.05404449 5.49946203 -0.09369306 8.25 -0.125 C9.02730469 -0.14175781 9.80460938 -0.15851563 10.60546875 -0.17578125 C11.35957031 -0.18222656 12.11367187 -0.18867188 12.890625 -0.1953125 C13.58188477 -0.20578613 14.27314453 -0.21625977 14.98535156 -0.22705078 C17 0 17 0 18.8996582 0.97265625 C21.5586252 2.27324129 23.76491035 2.41855443 26.71484375 2.6328125 C28.43513794 2.75897949 28.43513794 2.75897949 30.19018555 2.88769531 C32.0451062 3.00516113 32.0451062 3.00516113 33.9375 3.125 C35.21987549 3.2084668 36.50225098 3.29193359 37.82348633 3.37792969 C57.57700953 4.59255203 77.38576908 4.94082177 97 2 C94.15918977 4.84081023 90.96773555 4.97970574 87.140625 5.60546875 C86.34207092 5.7363237 85.54351685 5.86717865 84.72076416 6.0019989 C76.25563118 7.27519869 67.86699829 7.4200749 59.32128906 7.33618164 C56.73731586 7.31238318 54.15436944 7.31568111 51.5703125 7.32226562 C41.87668017 7.30654591 32.56787138 6.6969845 23 5 C21.93265625 4.82218994 20.8653125 4.64437988 19.765625 4.46118164 C16.7156182 3.94884639 13.67005758 3.41589839 10.625 2.875 C9.59117187 2.69324219 8.55734375 2.51148438 7.4921875 2.32421875 C4.99443395 1.88479914 2.4970513 1.44338957 0 1 C0 0.67 0 0.34 0 0 Z " fill="#CBB232" transform="translate(131,301)"/>
<path d="M0 0 C1.48844906 3.96919749 0.94136868 7.95860688 0 12 C-0.98189187 13.67739862 -1.98133771 15.34467377 -3 17 C-3.35543427 19.33006911 -3.6913753 21.66327016 -4 24 C-4.66 24.66 -5.32 25.32 -6 26 C-6.72640955 28.31543043 -7.38431458 30.65269935 -8 33 C-8.30808594 33.99773437 -8.61617187 34.99546875 -8.93359375 36.0234375 C-10.38078324 41.08189454 -11.20116065 46.25312742 -12.0625 51.4375 C-12.32800659 53.02570557 -12.32800659 53.02570557 -12.59887695 54.64599609 C-13.78771379 62.02540818 -14.54325756 69.29227223 -14.82421875 76.7578125 C-14.99493362 79.90655337 -15.4210442 82.90282182 -16 86 C-16.33 86 -16.66 86 -17 86 C-17.83903644 59.10422094 -14.37798159 31.53523601 -3 7 C-1.98691597 4.67206222 -0.99409949 2.33613381 0 0 Z " fill="#EAD060" transform="translate(64,128)"/>
<path d="M0 0 C-0.99 0 -1.98 0 -3 0 C-3.33 0.99 -3.66 1.98 -4 3 C-5.92578125 3.9140625 -5.92578125 3.9140625 -8.3125 4.625 C-9.09238281 4.86476563 -9.87226563 5.10453125 -10.67578125 5.3515625 C-12.18091671 5.77148264 -13.70018842 6.14469743 -15.23046875 6.4609375 C-16.10638672 6.72777344 -16.10638672 6.72777344 -17 7 C-17.33 7.66 -17.66 8.32 -18 9 C-18.99 9 -19.98 9 -21 9 C-21.2475 9.61875 -21.495 10.2375 -21.75 10.875 C-23.26043149 13.44273353 -24.28614652 13.86441592 -27 15 C-28.4918285 15.33093379 -29.99297786 15.6221093 -31.5 15.875 C-35.52944597 16.6927599 -37.22555152 17.91727947 -40 21 C-41.32 21 -42.64 21 -44 21 C-44 21.66 -44 22.32 -44 23 C-44.79664063 23.36351562 -44.79664063 23.36351562 -45.609375 23.734375 C-48.91507386 25.30277227 -51.57828561 26.57828561 -54.1875 29.1875 C-56.38923663 31.38923663 -57.95535037 31.6617056 -61 32 C-57.55015206 28.41063615 -54.01089555 25.35247603 -50 22.375 C-48.989375 21.61960937 -47.97875 20.86421875 -46.9375 20.0859375 C-36.59405877 12.74099386 -25.02359551 7.21838628 -13.3125 2.4375 C-12.45132568 2.07889893 -11.59015137 1.72029785 -10.70288086 1.35083008 C-9.48290405 0.8658606 -9.48290405 0.8658606 -8.23828125 0.37109375 C-7.51680908 0.08161865 -6.79533691 -0.20785645 -6.05200195 -0.50610352 C-3.67933406 -1.07718111 -2.2877551 -0.77224208 0 0 Z " fill="#E9C420" transform="translate(172,38)"/>
<path d="M0 0 C0.66 0.33 1.32 0.66 2 1 C2 2.32 2 3.64 2 5 C1.34 5 0.68 5 0 5 C-0.27328125 5.58007812 -0.5465625 6.16015625 -0.828125 6.7578125 C-1.98204568 8.96564739 -3.29094985 10.8590006 -4.75 12.875 C-8.78094833 18.82779411 -11.30330663 25.36779613 -14 32 C-14.99068951 34.33745294 -15.99457027 36.66882665 -17 39 C-17.33 39 -17.66 39 -18 39 C-18.75214626 30.1204955 -16.51122918 22.40813341 -14 14 C-13.34 14 -12.68 14 -12 14 C-11.67 12.02 -11.34 10.04 -11 8 C-10.67 8 -10.34 8 -10 8 C-10 10.31 -10 12.62 -10 15 C-9.34 15 -8.68 15 -8 15 C-7.67 14.01 -7.34 13.02 -7 12 C-5.5625 9.3125 -5.5625 9.3125 -4 7 C-3.34 7 -2.68 7 -2 7 C-1.34 4.69 -0.68 2.38 0 0 Z " fill="#A49B74" transform="translate(156,146)"/>
<path d="M0 0 C6.13691343 0.38867118 11.99623409 0.8601635 17.92993164 2.49829102 C27.29577805 4.7682302 37.33960968 4.18618687 46.91040039 4.18530273 C49.53223265 4.18747492 52.15363322 4.20564148 54.77539062 4.22460938 C65.66183795 4.25959919 76.22413721 3.54767661 87 2 C86 4 86 4 83.82925415 5.10882568 C80.64833082 6.11077073 78.06525526 6.25393496 74.73193359 6.25878906 C73.48648773 6.26509338 72.24104187 6.27139771 70.95785522 6.27789307 C69.60471455 6.27431066 68.25157516 6.27020805 66.8984375 6.265625 C65.49703911 6.26697421 64.09564118 6.26891687 62.69424438 6.27142334 C59.75721785 6.2743684 56.82031312 6.27010083 53.88330078 6.26074219 C50.14812566 6.24941121 46.41324004 6.25587033 42.67807579 6.26788712 C39.78156426 6.27517677 36.88511924 6.27278445 33.9886055 6.26763153 C32.61331777 6.26631127 31.23802369 6.26788477 29.86274338 6.27259064 C8.96134876 6.32836953 8.96134876 6.32836953 0 1 C0 0.67 0 0.34 0 0 Z " fill="#46482F" transform="translate(138,303)"/>
<path d="M0 0 C3.33646536 1.4163551 5.15544293 3.08171998 7.4375 5.875 C9.39254506 8.19116803 11.12478397 10.09982718 13.5 12 C17.14004831 14.91203864 20.00462728 18.4435344 23 22 C22.34 23.32 21.68 24.64 21 26 C18.8125 26.3125 18.8125 26.3125 16 26 C13.5625 23.8125 13.5625 23.8125 11 21 C9.03916669 19.28078596 7.02302688 17.64664979 5 16 C7.60582371 15.06934867 8.64198224 14.85082593 11.25 15.9375 C12.11625 16.4634375 12.11625 16.4634375 13 17 C13 16.01 13 15.02 13 14 C10.525 13.01 10.525 13.01 8 12 C8 11.01 8 10.02 8 9 C6.68 9 5.36 9 4 9 C1.75 7.3125 1.75 7.3125 0 5 C-0.25 2.25 -0.25 2.25 0 0 Z " fill="#DCC045" transform="translate(388,119)"/>
<path d="M0 0 C0 0.99 0 1.98 0 3 C-3.05642246 5.9913922 -6.57228696 8.44914379 -10 11 C-10.84949219 11.639375 -11.69898438 12.27875 -12.57421875 12.9375 C-17.79298309 16.73892332 -22.98116869 19.65934338 -29 22 C-28.67 20.68 -28.34 19.36 -28 18 C-29.175625 18.2475 -29.175625 18.2475 -30.375 18.5 C-34.93966142 19.12960847 -39.40072601 19.08180527 -44 19 C-44 18.67 -44 18.34 -44 18 C-43.20078125 17.91363281 -42.4015625 17.82726562 -41.578125 17.73828125 C-27.06137892 15.8810919 -11.51776411 9.27180011 0 0 Z " fill="#E8CE62" transform="translate(279,273)"/>
<path d="M0 0 C1.12564613 3.3769384 0.81973848 4.59490147 0.0625 8 C-1.68223183 17.17776743 -1.07020831 25.50836924 0.3125 34.6875 C0.43004639 35.48349609 0.54759277 36.27949219 0.66870117 37.09960938 C1.30823128 41.03241303 2.1443834 44.61876142 3.60546875 48.33203125 C5 52 5 52 5 56 C4.01 55.67 3.02 55.34 2 55 C0.75676279 52.30631937 -0.14819792 49.82623562 -1 47 C-1.28230469 46.11441406 -1.56460938 45.22882813 -1.85546875 44.31640625 C-5.47853985 31.23592889 -6.1516591 14.01878286 -2 1 C-1.34 0.67 -0.68 0.34 0 0 Z " fill="#E5CC55" transform="translate(139,183)"/>
<path d="M0 0 C0.66 0 1.32 0 2 0 C2.495 1.98 2.495 1.98 3 4 C2.13375 4.33 1.2675 4.66 0.375 5 C-3.46942433 7.27817738 -5.22586407 9.62183274 -7.703125 13.2578125 C-9 15 -9 15 -11 16 C-12.04500851 17.61995892 -12.04500851 17.61995892 -13 19.5 C-14.77777778 22.88888889 -14.77777778 22.88888889 -17 24 C-17.99 23.67 -18.98 23.34 -20 23 C-19.979375 23.804375 -19.95875 24.60875 -19.9375 25.4375 C-20 28 -20 28 -21 29 C-22.66617115 29.04063832 -24.33388095 29.042721 -26 29 C-26 29.99 -26 30.98 -26 32 C-27.65 32.66 -29.3 33.32 -31 34 C-29.5158627 30.51345524 -27.53785948 28.35808928 -24.8125 25.75 C-21.81350034 22.8280212 -18.962614 19.87705713 -16.25 16.6875 C-13.71444954 13.7274193 -11.04643404 11.43714723 -8 9 C-5.59429349 6.39381795 -3.29871132 3.70036787 -1 1 C-0.67 0.67 -0.34 0.34 0 0 Z " fill="#4D5660" transform="translate(433,119)"/>
<path d="M0 0 C0.33 0 0.66 0 1 0 C1.27263672 1.37671875 1.27263672 1.37671875 1.55078125 2.78125 C3.78838134 14.16983193 3.78838134 14.16983193 8.625 24.625 C10.23882288 27.41251225 10.63055462 29.82276973 11 33 C11.66 33 12.32 33 13 33 C13.04125 33.598125 13.0825 34.19625 13.125 34.8125 C13.41375 35.534375 13.7025 36.25625 14 37 C14.99 37.391875 15.98 37.78375 17 38.1875 C20 40 20 40 20.6171875 42.1875 C20.8525083 44.46939869 20.99038408 46.70660364 21 49 C17.08045173 45.39456187 14.41347843 41.69568343 11.875 37 C11.20615511 35.79143085 10.53689142 34.58309335 9.8671875 33.375 C9.25101563 32.26125 8.63484375 31.1475 8 30 C7.00851296 28.32825504 6.0119907 26.65941333 5 25 C4.67 26.65 4.34 28.3 4 30 C3.67 30 3.34 30 3 30 C0.96022967 19.86185582 -0.48741178 10.38006571 0 0 Z " fill="#D1B733" transform="translate(49,218)"/>
<path d="M0 0 C1.4540625 0.0309375 1.4540625 0.0309375 2.9375 0.0625 C2.8125 2.359375 2.8125 2.359375 1.9375 5.0625 C-4.73870139 9.55304022 -12.08369196 11.79203193 -20.0625 12.0625 C-20.0625 11.4025 -20.0625 10.7425 -20.0625 10.0625 C-18.7425 9.7325 -17.4225 9.4025 -16.0625 9.0625 C-15.7325 7.4125 -15.4025 5.7625 -15.0625 4.0625 C-14.28003906 3.85753906 -13.49757812 3.65257812 -12.69140625 3.44140625 C-11.67949219 3.17199219 -10.66757813 2.90257812 -9.625 2.625 C-8.61566406 2.35816406 -7.60632813 2.09132813 -6.56640625 1.81640625 C-0.57248185 0.0116833 -0.57248185 0.0116833 0 0 Z " fill="#EDC212" transform="translate(248.0625,290.9375)"/>
<path d="M0 0 C2 1.3125 2 1.3125 4 3 C4 3.99 4 4.98 4 6 C4.99 6.33 5.98 6.66 7 7 C7 8.32 7 9.64 7 11 C7.99 11 8.98 11 10 11 C10 12.65 10 14.3 10 16 C10.66 16 11.32 16 12 16 C12.12658228 21.56962025 12.12658228 21.56962025 11.375 24.125 C10.7843899 26.08039699 10.7843899 26.08039699 12 28 C13.24546405 30.49092811 12.7767578 31.41080733 12 34 C8.84835451 26.72362031 5.95533429 19.36709854 3.1875 11.9375 C2.87353271 11.10436279 2.55956543 10.27122559 2.23608398 9.4128418 C1.94548096 8.62562744 1.65487793 7.83841309 1.35546875 7.02734375 C1.09403076 6.32343506 0.83259277 5.61952637 0.56323242 4.89428711 C0 3 0 3 0 0 Z " fill="#445161" transform="translate(53,249)"/>
<path d="M0 0 C0.33 0.66 0.66 1.32 1 2 C0.690625 2.70125 0.38125 3.4025 0.0625 4.125 C-1.34430688 7.93165392 -1.13712735 10.95474319 -1 15 C-1.66 15 -2.32 15 -3 15 C-2.938125 16.0828125 -2.938125 16.0828125 -2.875 17.1875 C-3.01334555 20.30027498 -3.51975741 22.26155122 -5 25 C-7.078125 26.14453125 -7.078125 26.14453125 -9 27 C-9.75831068 15.73066068 -6.7619338 8.82808024 0 0 Z " fill="#9C998A" transform="translate(155,134)"/>
<path d="M0 0 C0.33 0 0.66 0 1 0 C1.125 7.625 1.125 7.625 0 11 C-0.09683764 13.62375195 -0.13998263 16.22012327 -0.1328125 18.84375 C-0.13424759 19.99200256 -0.13424759 19.99200256 -0.13571167 21.16345215 C-0.13639166 22.78068118 -0.13454997 24.39791295 -0.13037109 26.01513672 C-0.12502027 28.49062226 -0.13032216 30.96592636 -0.13671875 33.44140625 C-0.13605794 35.01302123 -0.13477671 36.5846361 -0.1328125 38.15625 C-0.13483673 38.89693726 -0.13686096 39.63762451 -0.13894653 40.40075684 C-0.12463282 43.53770149 0.00035753 46.0010726 1 49 C1.03954234 51.33299825 1.04401732 53.66708189 1 56 C-0.73662334 52.77484237 -1.8905928 49.48670834 -3 46 C-3.33 46 -3.66 46 -4 46 C-4.27029469 37.33555368 -3.85524328 28.81808873 -3.125 20.1875 C-3.04652832 19.22191162 -2.96805664 18.25632324 -2.88720703 17.26147461 C-2.35894196 11.35676901 -1.40874839 5.75929489 0 0 Z " fill="#E3C02D" transform="translate(52,176)"/>
<path d="M0 0 C0 0.33 0 0.66 0 1 C-1.68029297 1.39832031 -1.68029297 1.39832031 -3.39453125 1.8046875 C-4.86726338 2.16114496 -6.33991551 2.51793308 -7.8125 2.875 C-8.55048828 3.04902344 -9.28847656 3.22304687 -10.04882812 3.40234375 C-13.49717037 4.24492511 -16.01928362 5.01285575 -19 7 C-21.02609557 7.69313796 -23.07075102 8.33288062 -25.125 8.9375 C-26.28 9.28683594 -27.435 9.63617188 -28.625 9.99609375 C-30.6636999 10.60251258 -32.70474884 11.2012138 -34.75 11.78515625 C-39.3905861 13.15038189 -39.3905861 13.15038189 -43.0625 16.1875 C-43.5265625 17.0846875 -43.5265625 17.0846875 -44 18 C-45.32 17.67 -46.64 17.34 -48 17 C-42.40238724 11.23775157 -35.47639342 9.49213114 -28 7 C-27.09378906 6.62230469 -26.18757813 6.24460937 -25.25390625 5.85546875 C-23 5 -23 5 -20 5 C-19.67 4.01 -19.34 3.02 -19 2 C-12.83748371 -0.60195132 -6.59326599 -0.19487486 0 0 Z " fill="#AD9F6C" transform="translate(232,86)"/>
<path d="M0 0 C2.81819554 3.14337195 4.80438465 6.40919364 6.75 10.125 C9.53103567 15.3670033 12.79683888 20.05027943 16.36328125 24.78515625 C18 27 18 27 19 29 C17.68 29 16.36 29 15 29 C14.67 27.68 14.34 26.36 14 25 C12.68 24.67 11.36 24.34 10 24 C10 22.35 10 20.7 10 19 C9.01 19 8.02 19 7 19 C6.938125 18.443125 6.87625 17.88625 6.8125 17.3125 C5.66805194 14.05522474 3.47377916 12.3500902 1 10 C-0.60725635 6.78548731 -0.05748185 3.56387464 0 0 Z " fill="#44462E" transform="translate(53,241)"/>
<path d="M0 0 C-10.11349074 3.49504528 -19.94180518 3.39811617 -30.52001953 3.28125 C-33.38978011 3.24983822 -36.25898993 3.24024095 -39.12890625 3.234375 C-40.96875667 3.22521226 -42.80860155 3.21483882 -44.6484375 3.203125 C-45.92356705 3.19675018 -45.92356705 3.19675018 -47.22445679 3.19024658 C-51.58808194 3.13795215 -55.70359618 2.86674975 -60 2 C-60 1.67 -60 1.34 -60 1 C-58.20151611 1.01571045 -58.20151611 1.01571045 -56.36669922 1.03173828 C-51.85273306 1.06836009 -47.33877959 1.09105151 -42.82470703 1.10986328 C-40.8832782 1.11982592 -38.941864 1.13340092 -37.00048828 1.15087891 C-26.72308383 1.24098508 -16.82033044 1.21849216 -6.68408203 -0.66455078 C-4.07843527 -0.99019737 -2.46038905 -0.84122785 0 0 Z " fill="#E7C222" transform="translate(228,304)"/>
<path d="M0 0 C5.55490596 1.35256174 10.06636683 3.45345013 15 6.3125 C15.67289062 6.69083984 16.34578125 7.06917969 17.0390625 7.45898438 C21.57377651 10.04587239 25.79504252 12.90650914 30 16 C28.68 16.33 27.36 16.66 26 17 C26 16.34 26 15.68 26 15 C25.29488281 14.72414063 24.58976562 14.44828125 23.86328125 14.1640625 C20.9340016 12.97316845 18.06246414 11.69124864 15.1875 10.375 C14.21167969 9.92898437 13.23585938 9.48296875 12.23046875 9.0234375 C11.49441406 8.68570313 10.75835937 8.34796875 10 8 C10 7.34 10 6.68 10 6 C9.236875 6.04125 8.47375 6.0825 7.6875 6.125 C5 6 5 6 2 4 C2 3.34 2 2.68 2 2 C1.34 2 0.68 2 0 2 C0 1.34 0 0.68 0 0 Z " fill="#E9CE64" transform="translate(294,43)"/>
<path d="M0 0 C1.48199902 0.44909061 2.96055236 0.90956564 4.4375 1.375 C5.26121094 1.63023438 6.08492188 1.88546875 6.93359375 2.1484375 C9 3 9 3 10 5 C12.64 4.67 15.28 4.34 18 4 C18.33 4.99 18.66 5.98 19 7 C19.66 7.33 20.32 7.66 21 8 C21.66 8.33 22.32 8.66 23 9 C23.33 9.99 23.66 10.98 24 12 C23.01 12.495 23.01 12.495 22 13 C21.01 12.34 20.02 11.68 19 11 C17.46719084 10.57114545 15.92394077 10.17883678 14.375 9.8125 C8.59524094 8.17206838 4.3466635 5.09468301 0 1 C0 0.67 0 0.34 0 0 Z " fill="#EEC315" transform="translate(378,124)"/>
<path d="M0 0 C0.66 0 1.32 0 2 0 C1.49888043 4.34303627 -1.20828096 6.80946396 -4 10 C-4.495 10.7425 -4.99 11.485 -5.5 12.25 C-7 14 -7 14 -9.375 14.8125 C-12.78135062 16.35346814 -13.93945103 18.43104561 -15.88671875 21.5390625 C-16.25410156 22.02117187 -16.62148437 22.50328125 -17 23 C-17.66 23 -18.32 23 -19 23 C-16.02676958 16.24265813 -11.6861796 11.54894368 -6 7 C-5.34 6.01 -4.68 5.02 -4 4 C-3.34 4 -2.68 4 -2 4 C-1.34 2.68 -0.68 1.36 0 0 Z " fill="#EDD568" transform="translate(103,75)"/>
<path d="M0 0 C2.74226616 1.20659711 5.04170037 2.72668979 7.4375 4.5 C9.50675848 6.01569889 11.07996981 7.02998868 13.5 7.9375 C17.26493065 9.53759553 20.00632993 12.25652138 23 15 C22.01 15.495 22.01 15.495 21 16 C19.0546875 15.07421875 19.0546875 15.07421875 16.875 13.6875 C16.15054687 13.23761719 15.42609375 12.78773438 14.6796875 12.32421875 C14.12539063 11.88722656 13.57109375 11.45023438 13 11 C13 10.34 13 9.68 13 9 C12.01 9 11.02 9 10 9 C10 9.66 10 10.32 10 11 C6.64662411 10.00305041 5.27286429 9.41434947 3.3125 6.4375 C2.6628125 5.2309375 2.6628125 5.2309375 2 4 C1.34 3.67 0.68 3.34 0 3 C0 2.01 0 1.02 0 0 Z " fill="#A39B7A" transform="translate(376,124)"/>
<path d="M0 0 C-0.99 0 -1.98 0 -3 0 C-3.33 0.99 -3.66 1.98 -4 3 C-5.92578125 3.9140625 -5.92578125 3.9140625 -8.3125 4.625 C-9.09238281 4.86476563 -9.87226563 5.10453125 -10.67578125 5.3515625 C-12.18091671 5.77148264 -13.70018842 6.14469743 -15.23046875 6.4609375 C-16.10638672 6.72777344 -16.10638672 6.72777344 -17 7 C-17.33 7.66 -17.66 8.32 -18 9 C-20.06640625 9.4140625 -20.06640625 9.4140625 -22.5625 9.625 C-23.80193359 9.73714844 -23.80193359 9.73714844 -25.06640625 9.8515625 C-26.02353516 9.92503906 -26.02353516 9.92503906 -27 10 C-23.46661669 6.02219717 -18.9098765 4.67111171 -14.0625 2.75 C-13.15564453 2.37359375 -12.24878906 1.9971875 -11.31445312 1.609375 C-10.43853516 1.25875 -9.56261719 0.908125 -8.66015625 0.546875 C-7.86230713 0.22557617 -7.06445801 -0.09572266 -6.24243164 -0.42675781 C-3.74762153 -1.06451656 -2.40333419 -0.83922686 0 0 Z " fill="#EDD267" transform="translate(172,38)"/>
<path d="M0 0 C-5.40738495 3.37280774 -9.83362612 3.3978036 -15.9921875 3.29296875 C-16.93812775 3.28872391 -17.88406799 3.28447906 -18.8586731 3.28010559 C-21.86441133 3.26338306 -24.8694662 3.22574263 -27.875 3.1875 C-29.91926111 3.17244486 -31.96353279 3.15875791 -34.0078125 3.14648438 C-39.00546954 3.11350055 -44.00261911 3.06176253 -49 3 C-49 2.67 -49 2.34 -49 2 C-48.09870361 1.98018066 -47.19740723 1.96036133 -46.26879883 1.93994141 C-42.85971709 1.8608991 -39.45099614 1.77418797 -36.04223633 1.68261719 C-34.57909409 1.64480907 -33.11587398 1.60988163 -31.65258789 1.578125 C-23.16340491 1.39174157 -15.01519865 0.908376 -6.64331055 -0.68212891 C-4.06276321 -0.99245242 -2.43875482 -0.82511265 0 0 Z " fill="#5E5A25" transform="translate(225,306)"/>
<path d="M0 0 C0.77923828 0.00902344 1.55847656 0.01804688 2.36132812 0.02734375 C4.26185447 0.05066309 6.16222008 0.08652414 8.0625 0.125 C7.7325 1.115 7.4025 2.105 7.0625 3.125 C5.96550781 3.11339844 4.86851562 3.10179688 3.73828125 3.08984375 C2.28385588 3.08046036 0.82942865 3.07136075 -0.625 3.0625 C-1.34623047 3.05412109 -2.06746094 3.04574219 -2.81054688 3.03710938 C-6.63668708 3.01963842 -10.25136711 3.03762499 -13.9375 4.125 C-14.5975 4.785 -15.2575 5.445 -15.9375 6.125 C-15.2775 6.455 -14.6175 6.785 -13.9375 7.125 C-16.9375 7.125 -16.9375 7.125 -19.9375 5.125 C-14.09486089 -0.01652242 -7.38831233 -0.16460679 0 0 Z M-18.9375 7.125 C-18.2775 7.125 -17.6175 7.125 -16.9375 7.125 C-17.2675 7.785 -17.5975 8.445 -17.9375 9.125 C-18.2675 8.465 -18.5975 7.805 -18.9375 7.125 Z " fill="#5A636D" transform="translate(505.9375,61.875)"/>
<path d="M0 0 C3.33646536 1.4163551 5.15544293 3.08171998 7.4375 5.875 C9.49284337 8.31847689 11.30248584 10.24198867 13.8125 12.25 C16.05085636 14.04068509 16.96324279 15.36098165 18 18 C16.35 17.34 14.7 16.68 13 16 C13 15.34 13 14.68 13 14 C10.525 13.01 10.525 13.01 8 12 C8 11.01 8 10.02 8 9 C6.68 9 5.36 9 4 9 C1.75 7.3125 1.75 7.3125 0 5 C-0.25 2.25 -0.25 2.25 0 0 Z " fill="#E8CB58" transform="translate(388,119)"/>
<path d="M0 0 C2.72426311 2.35277269 3.8141763 4.62496331 5 8 C5.66 8 6.32 8 7 8 C8.8484977 10.42672235 10.4770431 12.96826182 12.1484375 15.51953125 C13.9213751 17.89466918 15.54602835 19.3730276 18 21 C17.67 21.66 17.34 22.32 17 23 C13.84456479 21.63696103 12.06811867 20.1817387 9.9375 17.5 C7.99127814 15.06335088 6.66606818 13.77737879 4 12 C2.83203125 10.1953125 2.83203125 10.1953125 1.8125 8.125 C1.46832031 7.44695312 1.12414062 6.76890625 0.76953125 6.0703125 C0 4 0 4 0 0 Z " fill="#E9D36C" transform="translate(148,248)"/>
<path d="M0 0 C3.18706942 1.43561686 5.62169105 3.20266329 8.25 5.5 C8.95640625 6.1084375 9.6628125 6.716875 10.390625 7.34375 C12 9 12 9 12 11 C13.32 11.66 14.64 12.32 16 13 C16 13.66 16 14.32 16 15 C17.32 15.66 18.64 16.32 20 17 C19.01 17.33 18.02 17.66 17 18 C14.17315616 16.18274325 12.34689075 14.96062054 11.1875 11.75 C11.125625 11.1725 11.06375 10.595 11 10 C9.02 10 7.04 10 5 10 C4.9175 9.46375 4.835 8.9275 4.75 8.375 C3.73623902 5.1647569 1.92839451 2.73707608 0 0 Z " fill="#EBCF62" transform="translate(335,68)"/>
<path d="M0 0 C0 0.99 0 1.98 0 3 C-1.90625 4.83203125 -1.90625 4.83203125 -4.5 6.8125 C-5.86125 7.85857422 -5.86125 7.85857422 -7.25 8.92578125 C-8.1575 9.61027344 -9.065 10.29476563 -10 11 C-10.78375 11.61230469 -11.5675 12.22460938 -12.375 12.85546875 C-17.7304038 17 -17.7304038 17 -20 17 C-20 16.01 -20 15.02 -20 14 C-19.34 14 -18.68 14 -18 14 C-18 13.34 -18 12.68 -18 12 C-17.4225 11.7525 -16.845 11.505 -16.25 11.25 C-13.90550694 10.09003695 -13.90550694 10.09003695 -12.125 8.0625 C-9.63625036 5.64694888 -7.11542953 4.49280998 -4 3 C-2.64136599 2.03465478 -1.29656863 1.04722851 0 0 Z " fill="#CDB540" transform="translate(279,273)"/>
<path d="M0 0 C0.99 0.33 1.98 0.66 3 1 C2.29230469 1.51046875 1.58460938 2.0209375 0.85546875 2.546875 C-2.53713171 5.46144831 -5.02204576 8.68155514 -7.6875 12.25 C-9.41023987 14.55613783 -11.15924962 16.78279987 -13 19 C-13.66 19 -14.32 19 -15 19 C-15.33 19.66 -15.66 20.32 -16 21 C-16 19.35 -16 17.7 -16 16 C-15.01 15.67 -14.02 15.34 -13 15 C-12.731875 14.4225 -12.46375 13.845 -12.1875 13.25 C-10.78874849 10.59973398 -8.92398699 9.20586566 -6.59765625 7.37109375 C-4.04692088 5.18207635 -2.08137778 2.63233073 0 0 Z " fill="#D1B643" transform="translate(173,109)"/>
<path d="M0 0 C0 0.33 0 0.66 0 1 C-1.72807318 1.33895656 -3.45751974 1.67091525 -5.1875 2 C-6.63189453 2.2784375 -6.63189453 2.2784375 -8.10546875 2.5625 C-10.7934206 2.96877612 -13.28771019 3.07933572 -16 3 C-16 3.66 -16 4.32 -16 5 C-16.79664063 5.06058594 -17.59328125 5.12117188 -18.4140625 5.18359375 C-26.24332697 5.79667866 -26.24332697 5.79667866 -34 7 C-30.7542969 3.7542969 -26.44518429 3.40619775 -22.0625 2.375 C-21.1135083 2.14917236 -20.1645166 1.92334473 -19.18676758 1.69067383 C-12.73461576 0.22475289 -6.63101045 -0.69881843 0 0 Z " fill="#EBD56F" transform="translate(207,30)"/>
<path d="M0 0 C0.33 0 0.66 0 1 0 C1.70555768 3.68427919 2.38615838 7.37275512 3.0625 11.0625 C3.26166016 12.10083984 3.46082031 13.13917969 3.66601562 14.20898438 C4.6800147 19.81266349 5.25814806 24.42141899 4 30 C3.67 30 3.34 30 3 30 C0.96022967 19.86185582 -0.48741178 10.38006571 0 0 Z " fill="#978B51" transform="translate(49,218)"/>
<path d="M0 0 C0.33 0 0.66 0 1 0 C0.91253716 1.43861294 0.80434652 2.87597508 0.6875 4.3125 C0.62949219 5.11300781 0.57148437 5.91351563 0.51171875 6.73828125 C-0.08838825 9.39066259 -0.85708967 10.36503879 -3 12 C-3.66 12 -4.32 12 -5 12 C-5.66 13.65 -6.32 15.3 -7 17 C-7.66 17 -8.32 17 -9 17 C-7.46933687 11.18348012 -4.32262613 4.32262613 0 0 Z " fill="#EDCF52" transform="translate(74,111)"/>
<path d="M0 0 C1.55902523 5.30304793 0.91730033 10.08563409 -1.4375 15 C-1.953125 15.66 -2.46875 16.32 -3 17 C-3.66 17 -4.32 17 -5 17 C-5.66 18.98 -6.32 20.96 -7 23 C-8.21760043 19.53690981 -7.80744321 17.77694761 -6.34765625 14.453125 C-5.98349609 13.60878906 -5.61933594 12.76445312 -5.24414062 11.89453125 C-4.85419922 11.02183594 -4.46425781 10.14914063 -4.0625 9.25 C-3.67642578 8.36183594 -3.29035156 7.47367188 -2.89257812 6.55859375 C-1.93849057 4.36772604 -0.97405887 2.18204402 0 0 Z " fill="#EDD567" transform="translate(64,128)"/>
<path d="M0 0 C4.48515941 0.79149872 8.7772134 2.04452978 13.125 3.375 C13.84042969 3.58382812 14.55585938 3.79265625 15.29296875 4.0078125 C19.19265838 5.20323138 21.04791212 6.04791212 24 9 C20.7 8.67 17.4 8.34 14 8 C14 7.34 14 6.68 14 6 C13.15695312 5.79503906 12.31390625 5.59007813 11.4453125 5.37890625 C10.34960938 5.10949219 9.25390625 4.84007813 8.125 4.5625 C7.03445313 4.29566406 5.94390625 4.02882813 4.8203125 3.75390625 C2 3 2 3 0 2 C0 1.34 0 0.68 0 0 Z " fill="#B1A06A" transform="translate(304,92)"/>
<path d="M0 0 C0.66 0.33 1.32 0.66 2 1 C1.03173962 3.39569579 0.42010143 4.73811859 -1.8046875 6.125 C-2.48789063 6.41375 -3.17109375 6.7025 -3.875 7 C-6.57674318 8.23160545 -8.04871786 9.04871786 -10.1875 11.1875 C-12.38923663 13.38923663 -13.95535037 13.6617056 -17 14 C-13.46843481 10.31118515 -9.81465908 7.22617756 -5.6875 4.1875 C-5.13771484 3.78080078 -4.58792969 3.37410156 -4.02148438 2.95507812 C-2.68374453 1.96631389 -1.34226377 0.98261415 0 0 Z " fill="#EBD467" transform="translate(128,56)"/>
<path d="M0 0 C-0.78375 0.763125 -1.5675 1.52625 -2.375 2.3125 C-5.07257717 4.90891805 -5.07257717 4.90891805 -7 8 C-7.66 8 -8.32 8 -9 8 C-9.66 9.32 -10.32 10.64 -11 12 C-11.66 12 -12.32 12 -13 12 C-13 11.01 -13 10.02 -13 9 C-12.34 9 -11.68 9 -11 9 C-11.33 7.35 -11.66 5.7 -12 4 C-4.71428571 -0.57142857 -4.71428571 -0.57142857 0 0 Z " fill="#444F5A" transform="translate(492,188)"/>
<path d="M0 0 C1.32 1.32 2.64 2.64 4 4 C3.01 4.495 3.01 4.495 2 5 C1.01 4.67 0.02 4.34 -1 4 C-0.979375 4.804375 -0.95875 5.60875 -0.9375 6.4375 C-1 9 -1 9 -2 10 C-3.66617115 10.04063832 -5.33388095 10.042721 -7 10 C-7 10.99 -7 11.98 -7 13 C-8.65 13.66 -10.3 14.32 -12 15 C-10.4744094 11.34858644 -8.27519091 9.09881888 -5.4375 6.375 C-2.30957946 3.48929319 -2.30957946 3.48929319 0 0 Z " fill="#4C5355" transform="translate(414,138)"/>
<path d="M0 0 C8.47099234 2.51840313 16.44070128 6.46442077 24 11 C21.74778481 11.763922 20.44068132 12.13962238 18.140625 11.41088867 C17.51671875 11.0832251 16.8928125 10.75556152 16.25 10.41796875 C15.5590625 10.06283203 14.868125 9.70769531 14.15625 9.34179688 C13.4446875 8.96087891 12.733125 8.57996094 12 8.1875 C11.2884375 7.81818359 10.576875 7.44886719 9.84375 7.06835938 C8.51277373 6.37679801 7.18433072 5.68032217 5.859375 4.97729492 C3.91926721 3.95756652 1.96325689 2.97429881 0 2 C0 1.34 0 0.68 0 0 Z " fill="#A59B76" transform="translate(340,106)"/>
<path d="M0 0 C5.45111321 2.58210626 10.17518523 5.38138892 15 9 C14.01 9.33 13.02 9.66 12 10 C11.01 9.34 10.02 8.68 9 8 C6.94290404 7.75944532 6.94290404 7.75944532 4.8125 7.875 C3.554375 7.91625 2.29625 7.9575 1 8 C1.33 6.02 1.66 4.04 2 2 C1.34 2 0.68 2 0 2 C0 1.34 0 0.68 0 0 Z " fill="#36403B" transform="translate(80,278)"/>
<path d="M0 0 C0 3.01490557 -0.51952735 4.86864114 -1.5 7.6875 C-1.7784375 8.49574219 -2.056875 9.30398437 -2.34375 10.13671875 C-2.5603125 10.75160156 -2.776875 11.36648437 -3 12 C-6 12 -9 12 -12 12 C-8.04 8.04 -4.08 4.08 0 0 Z " fill="#4F5A65" transform="translate(313,240)"/>
<path d="M0 0 C3.9657488 0.48069682 6.83179635 1.90459649 10.234375 3.9609375 C12.19706642 5.15239984 12.19706642 5.15239984 15.1875 6.5 C18.02815438 8.01501567 19.86255459 9.61592628 22 12 C18.10957984 11.42543617 15.44132504 10.28006931 12.125 8.1875 C11.26390625 7.65253906 10.4028125 7.11757812 9.515625 6.56640625 C8.68546875 6.04949219 7.8553125 5.53257813 7 5 C4.67798625 3.64549198 2.34030671 2.32278205 0 1 C0 0.67 0 0.34 0 0 Z " fill="#DABB39" transform="translate(356,112)"/>
<path d="M0 0 C-1.28777344 0.26554687 -2.57554687 0.53109375 -3.90234375 0.8046875 C-5.5808238 1.16101287 -7.25920417 1.51780798 -8.9375 1.875 C-10.21270508 2.13603516 -10.21270508 2.13603516 -11.51367188 2.40234375 C-12.72700195 2.66337891 -12.72700195 2.66337891 -13.96484375 2.9296875 C-14.7137085 3.08679199 -15.46257324 3.24389648 -16.23413086 3.40576172 C-18.21434229 3.8411161 -18.21434229 3.8411161 -19 6 C-21.28515625 6.8515625 -21.28515625 6.8515625 -24.0625 7.625 C-24.98160156 7.88539062 -25.90070313 8.14578125 -26.84765625 8.4140625 C-27.55792969 8.60742188 -28.26820313 8.80078125 -29 9 C-28.41015625 7.16796875 -28.41015625 7.16796875 -27 5 C-18.99901059 1.05794545 -8.84837548 -2.55619736 0 0 Z " fill="#D9BB3D" transform="translate(231,85)"/>
<path d="M0 0 C2.56272545 0.43932436 4.8292418 0.9254436 7.21875 1.96875 C10.57405671 3.21285249 13.76696553 3.66109829 17.3125 4.125 C18.56675781 4.29257812 19.82101563 4.46015625 21.11328125 4.6328125 C22.06589844 4.75398438 23.01851562 4.87515625 24 5 C24 5.33 24 5.66 24 6 C16.57313685 6.10331031 9.36487404 5.99862699 2 5 C2 3.68 2 2.36 2 1 C1.34 0.67 0.68 0.34 0 0 Z " fill="#EBD67E" transform="translate(190,286)"/>
<path d="M0 0 C0.33 0.99 0.66 1.98 1 3 C0.071875 3.309375 0.071875 3.309375 -0.875 3.625 C-3.8360199 5.54095405 -3.92644398 7.71223468 -5 11 C-7.87432432 13.77166988 -11.41673024 15.28980307 -15 17 C-15 15 -15 15 -13.125 12.875 C-11 11 -11 11 -9 11 C-8.34 9.68 -7.68 8.36 -7 7 C-6.34 7 -5.68 7 -5 7 C-4.67 6.01 -4.34 5.02 -4 4 C-2.70644173 2.62804426 -1.37701298 1.28817344 0 0 Z " fill="#717880" transform="translate(337,215)"/>
<path d="M0 0 C0 3.9519815 -1.37176172 5.14648416 -4 8 C-4.99 8.33 -5.98 8.66 -7 9 C-7.45375 9.515625 -7.9075 10.03125 -8.375 10.5625 C-10 12 -10 12 -12.6875 12.1875 C-13.450625 12.125625 -14.21375 12.06375 -15 12 C-15 12.66 -15 13.32 -15 14 C-16.32 13.67 -17.64 13.34 -19 13 C-18.45472656 12.72027344 -17.90945312 12.44054687 -17.34765625 12.15234375 C-11.11405965 8.83841462 -5.02391893 5.02391893 0 0 Z " fill="#514E2C" transform="translate(272,280)"/>
<path d="M0 0 C0.66 0.33 1.32 0.66 2 1 C0.71580959 2.67243402 -0.57757185 4.33781447 -1.875 6 C-2.59429687 6.928125 -3.31359375 7.85625 -4.0546875 8.8125 C-4.69664062 9.534375 -5.33859375 10.25625 -6 11 C-6.66 11 -7.32 11 -8 11 C-8 11.66 -8 12.32 -8 13 C-9.62553283 14.70680947 -11.29115995 16.37660195 -13 18 C-13.66 17.67 -14.32 17.34 -15 17 C-13.44505919 14.91064265 -11.88155426 12.82871869 -10.3125 10.75 C-9.87744141 10.16347656 -9.44238281 9.57695313 -8.99414062 8.97265625 C-6.3088378 5.43203475 -3.62752537 2.64057702 0 0 Z " fill="#A99C6E" transform="translate(176,109)"/>
<path d="M0 0 C0.66 0 1.32 0 2 0 C2 1.32 2 2.64 2 4 C2.99 3.67 3.98 3.34 5 3 C4.67 4.32 4.34 5.64 4 7 C4.99 7.33 5.98 7.66 7 8 C7 8.66 7 9.32 7 10 C7.639375 10.20625 8.27875 10.4125 8.9375 10.625 C11 12 11 12 11.75 15.125 C11.87375 16.548125 11.87375 16.548125 12 18 C6.82773385 13.3126338 3.01074507 7.68271819 -1 2 C-0.67 1.34 -0.34 0.68 0 0 Z " fill="#5D6973" transform="translate(80,305)"/>
<path d="M0 0 C0.66 0 1.32 0 2 0 C2.17159443 6.17739955 1.53731344 11.91629688 0.5 18 C0.35691406 18.87011719 0.21382812 19.74023438 0.06640625 20.63671875 C-0.28338027 22.75875695 -0.6408865 24.87952028 -1 27 C-1.33 27 -1.66 27 -2 27 C-1.86057319 23.43721911 -1.71232922 19.8748574 -1.5625 16.3125 C-1.52318359 15.30509766 -1.48386719 14.29769531 -1.44335938 13.25976562 C-1.40146484 12.28330078 -1.35957031 11.30683594 -1.31640625 10.30078125 C-1.27974854 9.40528564 -1.24309082 8.50979004 -1.20532227 7.5871582 C-0.99938249 4.99221912 -0.56232178 2.53945316 0 0 Z " fill="#E4C02B" transform="translate(136,176)"/>
<path d="M0 0 C-6.39150035 5.55782639 -13.73965772 7.47553382 -22 8 C-22 7.34 -22 6.68 -22 6 C-20.7625 5.855625 -19.525 5.71125 -18.25 5.5625 C-14.0417673 5.12558842 -14.0417673 5.12558842 -10 4 C-9.67 3.01 -9.34 2.02 -9 1 C-5.8035914 -0.06546953 -3.34252724 -0.07427838 0 0 Z " fill="#D5B832" transform="translate(250,295)"/>
<path d="M0 0 C0.33 0.99 0.66 1.98 1 3 C-0.98 3.99 -2.96 4.98 -5 6 C-4.67 4.68 -4.34 3.36 -4 2 C-4.78375 2.165 -5.5675 2.33 -6.375 2.5 C-10.93966142 3.12960847 -15.40072601 3.08180527 -20 3 C-20 2.67 -20 2.34 -20 2 C-17.2294096 1.66453392 -14.45856036 1.33154158 -11.6875 1 C-10.90181641 0.90460938 -10.11613281 0.80921875 -9.30664062 0.7109375 C-8.54931641 0.62070312 -7.79199219 0.53046875 -7.01171875 0.4375 C-6.31522217 0.35371094 -5.61872559 0.26992188 -4.90112305 0.18359375 C-3 0 -3 0 0 0 Z " fill="#E6CA55" transform="translate(255,289)"/>
<path d="M0 0 C0.66 0.33 1.32 0.66 2 1 C2 2.32 2 3.64 2 5 C1.34 5 0.68 5 0 5 C-0.26554688 5.56203125 -0.53109375 6.1240625 -0.8046875 6.703125 C-2.09331034 9.17930222 -3.56130361 11.43844882 -5.125 13.75 C-5.93324219 14.94882813 -5.93324219 14.94882813 -6.7578125 16.171875 C-7.16773438 16.77515625 -7.57765625 17.3784375 -8 18 C-8.66 17.34 -9.32 16.68 -10 16 C-9.05016642 14.49460339 -8.08988109 12.99579653 -7.125 11.5 C-6.59132812 10.6646875 -6.05765625 9.829375 -5.5078125 8.96875 C-5.01023438 8.3190625 -4.51265625 7.669375 -4 7 C-3.34 7 -2.68 7 -2 7 C-1.34 4.69 -0.68 2.38 0 0 Z " fill="#ADA9A6" transform="translate(156,146)"/>
<path d="M0 0 C0.33 0.99 0.66 1.98 1 3 C-0.60606348 5.15671382 -2.17930254 7.04707311 -4 9 C-4.680625 9.804375 -5.36125 10.60875 -6.0625 11.4375 C-7.0215625 12.2109375 -7.0215625 12.2109375 -8 13 C-10.12109375 12.59765625 -10.12109375 12.59765625 -12 12 C-11.55269531 11.63648438 -11.10539062 11.27296875 -10.64453125 10.8984375 C-6.61206348 7.5452127 -3.23995546 4.12357967 0 0 Z " fill="#3E4953" transform="translate(395,158)"/>
<path d="M0 0 C-0.06006078 1.45947705 -0.1488689 2.91779272 -0.25 4.375 C-0.29640625 5.18710938 -0.3428125 5.99921875 -0.390625 6.8359375 C-1 9 -1 9 -3.046875 10.2890625 C-4.01367188 10.64097656 -4.01367188 10.64097656 -5 11 C-5.49095023 4.61764706 -5.49095023 4.61764706 -3.0625 1.5625 C-1 0 -1 0 0 0 Z " fill="#979795" transform="translate(151,150)"/>
<path d="M0 0 C1.35055201 2.70110402 1 5.00789006 1 8 C-0.98 8.66 -2.96 9.32 -5 10 C-5 9.34 -5 8.68 -5 8 C-5.66 7.67 -6.32 7.34 -7 7 C-5.71034824 5.62437146 -4.37310707 4.29233607 -3 3 C-2.34 3 -1.68 3 -1 3 C-0.67 2.01 -0.34 1.02 0 0 Z " fill="#56606C" transform="translate(484,68)"/>
<path d="M0 0 C1.48199902 0.44909061 2.96055236 0.90956564 4.4375 1.375 C5.26121094 1.63023438 6.08492188 1.88546875 6.93359375 2.1484375 C9 3 9 3 10 5 C11.64363134 5.72159424 13.31050386 6.39351421 15 7 C14.67 7.99 14.34 8.98 14 10 C8.63545519 7.5027119 4.3483523 5.02222588 0 1 C0 0.67 0 0.34 0 0 Z " fill="#DCBD38" transform="translate(378,124)"/>
<path d="M0 0 C3.38818502 1.43605193 5.3186598 3.20466579 7.6875 6 C8.28949219 6.70125 8.89148438 7.4025 9.51171875 8.125 C11 10 11 10 12 12 C11.01 12 10.02 12 9 12 C9 11.34 9 10.68 9 10 C8.39671875 9.90589844 7.7934375 9.81179687 7.171875 9.71484375 C4.50176772 8.83601348 3.80225504 7.866928 2.25 5.5625 C1.82203125 4.94503906 1.3940625 4.32757813 0.953125 3.69140625 C0 2 0 2 0 0 Z " fill="#E5CB5B" transform="translate(376,107)"/>
<path d="M0 0 C-6.80074041 1.90420731 -12.91923749 3.40850553 -20 3 C-17.23040385 0.23040385 -14.97306704 0.34450927 -11.125 -0.1875 C-9.89007813 -0.36667969 -8.65515625 -0.54585938 -7.3828125 -0.73046875 C-4.49405581 -0.96063528 -2.68714237 -0.95197757 0 0 Z " fill="#D2B734" transform="translate(228,304)"/>
<path d="M0 0 C0.33 0.66 0.66 1.32 1 2 C-1.24497054 7.2382646 -5.70920956 10.46341026 -10 14 C-10.66 13.67 -11.32 13.34 -12 13 C-10.8553125 12.1646875 -10.8553125 12.1646875 -9.6875 11.3125 C-6.99597578 8.9965373 -5.74887747 7.04152603 -4 4 C-2.70420353 2.63015802 -1.38007251 1.2848951 0 0 Z " fill="#707571" transform="translate(286,266)"/>
<path d="M0 0 C1 2 1 2 0.3125 4.25 C-3.50746269 12.25373134 -3.50746269 12.25373134 -7 14 C-6.69723124 7.94462479 -3.72245962 4.48516542 0 0 Z " fill="#AA9C72" transform="translate(155,134)"/>
<path d="M0 0 C0.33 1.32 0.66 2.64 1 4 C0.01 4.33 -0.98 4.66 -2 5 C-2.73323796 7.01508358 -2.73323796 7.01508358 -3 9 C-5.31 9.66 -7.62 10.32 -10 11 C-6.79239749 7.19364503 -3.59253891 3.45436433 0 0 Z " fill="#626971" transform="translate(458,94)"/>
<path d="M0 0 C0 5.01392926 -2.78055114 7.89749688 -6.1875 11.3125 C-7.115625 12.199375 -8.04375 13.08625 -9 14 C-9.66 13.67 -10.32 13.34 -11 13 C-10.21625 12.278125 -9.4325 11.55625 -8.625 10.8125 C-6.0916095 8.09815303 -5.32390193 6.35388488 -4 3 C-1.875 1.1875 -1.875 1.1875 0 0 Z " fill="#EBCB37" transform="translate(110,70)"/>
<path d="M0 0 C3.18005028 3.88672813 6.10554447 7.89952133 9 12 C7.68 12 6.36 12 5 12 C4.67 10.68 4.34 9.36 4 8 C2.68 7.67 1.36 7.34 0 7 C0 4.69 0 2.38 0 0 Z " fill="#4E4F2D" transform="translate(63,258)"/>
<path d="M0 0 C1.32 0.33 2.64 0.66 4 1 C2.06891037 2.03290841 0.129882 3.05098672 -1.8125 4.0625 C-2.89144531 4.63097656 -3.97039062 5.19945312 -5.08203125 5.78515625 C-8 7 -8 7 -11 6 C-11 5.34 -11 4.68 -11 4 C-9.73392393 3.46770674 -8.46189588 2.94955456 -7.1875 2.4375 C-6.47980469 2.14746094 -5.77210938 1.85742188 -5.04296875 1.55859375 C-3 1 -3 1 0 2 C0 1.34 0 0.68 0 0 Z " fill="#676F79" transform="translate(300,363)"/>
<path d="M0 0 C7.36072234 0.42465706 13.32137824 2.98348917 20 6 C16.30133364 7.36633087 14.16535544 6.60165824 10.5625 5.1875 C9.63566406 4.83042969 8.70882812 4.47335937 7.75390625 4.10546875 C6.84511719 3.74066406 5.93632813 3.37585938 5 3 C4.06027344 2.62488281 3.12054688 2.24976563 2.15234375 1.86328125 C1.44207031 1.57839844 0.73179688 1.29351562 0 1 C0 0.67 0 0.34 0 0 Z " fill="#BCA437" transform="translate(110,294)"/>
<path d="M0 0 C0.53109375 0.33773438 1.0621875 0.67546875 1.609375 1.0234375 C2.31578125 1.46945312 3.0221875 1.91546875 3.75 2.375 C4.79414063 3.03628906 4.79414063 3.03628906 5.859375 3.7109375 C7.86517383 4.91880906 9.89178296 5.98387737 12 7 C9.45297384 8.27351308 8.5717055 7.80191925 5.875 7.0625 C5.15054688 6.86785156 4.42609375 6.67320312 3.6796875 6.47265625 C3.12539062 6.31667969 2.57109375 6.16070312 2 6 C2 5.34 2 4.68 2 4 C1.01 4 0.02 4 -1 4 C-0.67 2.68 -0.34 1.36 0 0 Z " fill="#EAD66A" transform="translate(169,273)"/>
<path d="M0 0 C0.33 0.66 0.66 1.32 1 2 C0.29296875 3.98828125 0.29296875 3.98828125 -0.8125 6.3125 C-1.18503906 7.11171875 -1.55757812 7.9109375 -1.94140625 8.734375 C-2.29074219 9.48203125 -2.64007813 10.2296875 -3 11 C-3.67834587 12.66194738 -4.35199575 14.32598903 -5 16 C-5.33 16 -5.66 16 -6 16 C-6 13.69 -6 11.38 -6 9 C-5.01 8.67 -4.02 8.34 -3 8 C-3.061875 7.05125 -3.12375 6.1025 -3.1875 5.125 C-3.125625 4.09375 -3.06375 3.0625 -3 2 C-2.01 1.34 -1.02 0.68 0 0 Z " fill="#B7B4AB" transform="translate(146,165)"/>
<path d="M0 0 C4.76350585 0.71452588 9.34201396 1.79534844 14 3 C14 3.99 14 4.98 14 6 C8.65155992 5.46515599 4.64203897 3.53309233 0 1 C0 0.67 0 0.34 0 0 Z " fill="#DCBC35" transform="translate(320,96)"/>
<path d="M0 0 C1.1725131 0.95117134 2.33787015 1.91117009 3.5 2.875 C4.47453125 3.67550781 4.47453125 3.67550781 5.46875 4.4921875 C5.9740625 4.98976563 6.479375 5.48734375 7 6 C7 6.66 7 7.32 7 8 C7.99 8.33 8.98 8.66 10 9 C9.01 9.33 8.02 9.66 7 10 C6.34 9.67 5.68 9.34 5 9 C5 8.34 5 7.68 5 7 C4.360625 6.773125 3.72125 6.54625 3.0625 6.3125 C1 5 1 5 0.25 2.375 C0.1675 1.59125 0.085 0.8075 0 0 Z " fill="#EACF5F" transform="translate(355,86)"/>
<path d="M0 0 C1.65 0 3.3 0 5 0 C4.67 0.99 4.34 1.98 4 3 C5.65 3.33 7.3 3.66 9 4 C9 4.66 9 5.32 9 6 C9.639375 6.28875 10.27875 6.5775 10.9375 6.875 C13 8 13 8 14 10 C10.94185543 8.54440716 8.13706343 6.86747996 5.3125 5 C4.52488281 4.484375 3.73726563 3.96875 2.92578125 3.4375 C1 2 1 2 0 0 Z " fill="#CAB231" transform="translate(78,275)"/>
<path d="M0 0 C0.33 0.66 0.66 1.32 1 2 C-2.96 7.94 -2.96 7.94 -7 14 C-7.33 13.01 -7.66 12.02 -8 11 C-7.34 10.34 -6.68 9.68 -6 9 C-5.2884375 7.2675 -5.2884375 7.2675 -4.5625 5.5 C-3 2 -3 2 0 0 Z " fill="#DBBC39" transform="translate(156,130)"/>
<path d="M0 0 C7.486774 0.2798794 13.36270688 1.47649871 20 5 C16.94371936 5.97812873 15.14722553 6.00835683 12.109375 5.00390625 C11.40039062 4.77509766 10.69140625 4.54628906 9.9609375 4.31054688 C9.23132813 4.06369141 8.50171875 3.81683594 7.75 3.5625 C7.00492187 3.31951172 6.25984375 3.07652344 5.4921875 2.82617188 C3.65841765 2.22667019 1.82877996 1.61455513 0 1 C0 0.67 0 0.34 0 0 Z " fill="#DBBD39" transform="translate(300,90)"/>
<path d="M0 0 C0.61875 0.268125 1.2375 0.53625 1.875 0.8125 C2.205 1.8025 2.535 2.7925 2.875 3.8125 C1.4375 6 1.4375 6 -0.125 7.8125 C-1.775 5.8325 -3.425 3.8525 -5.125 1.8125 C-2.125 -0.1875 -2.125 -0.1875 0 0 Z " fill="#AFB0AC" transform="translate(435.125,282.1875)"/>
<path d="M0 0 C0.99 0 1.98 0 3 0 C2.67 1.32 2.34 2.64 2 4 C1.34 4 0.68 4 0 4 C-0.268125 4.61875 -0.53625 5.2375 -0.8125 5.875 C-2 8 -2 8 -5 10 C-4.25 5.25 -4.25 5.25 -2 3 C-1.01 3 -0.02 3 1 3 C0.67 2.01 0.34 1.02 0 0 Z " fill="#676E77" transform="translate(521,154)"/>
<path d="M0 0 C2.31 1.98 4.62 3.96 7 6 C6.67 6.66 6.34 7.32 6 8 C4.68 8 3.36 8 2 8 C2 6.68 2 5.36 2 4 C0.68 3.67 -0.64 3.34 -2 3 C-1.34 2.01 -0.68 1.02 0 0 Z " fill="#ECD151" transform="translate(369,100)"/>
<path d="M0 0 C6.33393082 -0.34548714 11.10261508 0.70657253 17 3 C11.14131896 4.73542222 5.44105846 3.55049615 0 1 C0 0.67 0 0.34 0 0 Z " fill="#C1AE52" transform="translate(283,86)"/>
<path d="M0 0 C2.140625 0.39453125 2.140625 0.39453125 4 1 C3.04882866 2.1725131 2.08882991 3.33787015 1.125 4.5 C0.59132813 5.1496875 0.05765625 5.799375 -0.4921875 6.46875 C-0.98976563 6.9740625 -1.48734375 7.479375 -2 8 C-2.66 8 -3.32 8 -4 8 C-4 4 -4 4 -2.25 1.6875 C-1.5075 1.130625 -0.765 0.57375 0 0 Z " fill="#586169" transform="translate(370,305)"/>
<path d="M0 0 C0 3 0 3 -1.57421875 4.60546875 C-2.62029297 5.38857422 -2.62029297 5.38857422 -3.6875 6.1875 C-4.37199219 6.71730469 -5.05648438 7.24710937 -5.76171875 7.79296875 C-8.37464398 9.20203314 -10.07442819 9.2305617 -13 9 C-10.442172 6.01586734 -7.49426066 4.71147461 -4 3 C-2.64136599 2.03465478 -1.29656863 1.04722851 0 0 Z " fill="#CBC38C" transform="translate(279,273)"/>
<path d="M0 0 C1.32 0.66 2.64 1.32 4 2 C3.04882866 3.1725131 2.08882991 4.33787015 1.125 5.5 C0.59132813 6.1496875 0.05765625 6.799375 -0.4921875 7.46875 C-0.98976563 7.9740625 -1.48734375 8.479375 -2 9 C-2.66 9 -3.32 9 -4 9 C-4 7.68 -4 6.36 -4 5 C-3.01 5 -2.02 5 -1 5 C-0.67 3.35 -0.34 1.7 0 0 Z " fill="#47515C" transform="translate(498,176)"/>
<path d="M0 0 C0.99 0.33 1.98 0.66 3 1 C1.33333333 2.66666667 -0.33333333 4.33333333 -2 6 C-2.556875 6.598125 -3.11375 7.19625 -3.6875 7.8125 C-5 9 -5 9 -7 9 C-6.75 7.125 -6.75 7.125 -6 5 C-3.9375 3.75 -3.9375 3.75 -2 3 C-2 2.34 -2 1.68 -2 1 C-1.34 0.67 -0.68 0.34 0 0 Z " fill="#D4B73F" transform="translate(185,100)"/>
<path d="M0 0 C1.32 0.66 2.64 1.32 4 2 C3.34 2 2.68 2 2 2 C2 2.66 2 3.32 2 4 C-5.42857143 6.42857143 -5.42857143 6.42857143 -9 5 C-8.01 5 -7.02 5 -6 5 C-6 4.34 -6 3.68 -6 3 C-5.195625 2.690625 -4.39125 2.38125 -3.5625 2.0625 C-1.10919595 1.23664655 -1.10919595 1.23664655 0 0 Z " fill="#57606C" transform="translate(280,369)"/>
<path d="M0 0 C3.125 0.375 3.125 0.375 6 1 C3.25 5.875 3.25 5.875 1 7 C0.67 6.01 0.34 5.02 0 4 C-0.66 3.34 -1.32 2.68 -2 2 C-1.34 1.34 -0.68 0.68 0 0 Z " fill="#505A65" transform="translate(387,285)"/>
<path d="M0 0 C2.31 0.33 4.62 0.66 7 1 C7.33 3.31 7.66 5.62 8 8 C6.85073734 7.04578192 5.70569459 6.08647955 4.5625 5.125 C3.92441406 4.59132813 3.28632812 4.05765625 2.62890625 3.5078125 C1 2 1 2 0 0 Z " fill="#D1B42F" transform="translate(70,267)"/>
<path d="M0 0 C0.33 1.32 0.66 2.64 1 4 C-1.8125 5.5625 -1.8125 5.5625 -5 7 C-5.99 6.67 -6.98 6.34 -8 6 C-7.0479279 4.99403703 -6.08812654 3.99538437 -5.125 3 C-4.59132813 2.443125 -4.05765625 1.88625 -3.5078125 1.3125 C-2 0 -2 0 0 0 Z " fill="#667079" transform="translate(435,119)"/>
<path d="M0 0 C0 3.65725087 -1.04218764 4.95451411 -3 8 C-3.7734375 9.3921875 -3.7734375 9.3921875 -4.5625 10.8125 C-5.036875 11.534375 -5.51125 12.25625 -6 13 C-6.66 13 -7.32 13 -8 13 C-6.80100302 9.9168649 -5.52299523 6.93720508 -4 4 C-3.34 4 -2.68 4 -2 4 C-1.34 2.68 -0.68 1.36 0 0 Z " fill="#ECD46B" transform="translate(83,98)"/>
<path d="M0 0 C5.69139902 1.09698167 10.74567937 2.54053077 16 5 C16 5.33 16 5.66 16 6 C14.54077307 5.88590407 13.08259402 5.75834456 11.625 5.625 C10.40683594 5.52058594 10.40683594 5.52058594 9.1640625 5.4140625 C7 5 7 5 5 3 C3.35008418 2.29289322 1.68437744 1.62056011 0 1 C0 0.67 0 0.34 0 0 Z " fill="#F0DC80" transform="translate(278,37)"/>
<path d="M0 0 C5.28 0.99 10.56 1.98 16 3 C16 3.33 16 3.66 16 4 C11.38 4 6.76 4 2 4 C2 3.34 2 2.68 2 2 C1.34 2 0.68 2 0 2 C0 1.34 0 0.68 0 0 Z " fill="#4B4B2D" transform="translate(122,299)"/>
<path d="M0 0 C0.99 0.33 1.98 0.66 3 1 C1.71937515 2.7074998 0.38232443 4.37373596 -1 6 C-1.66 6 -2.32 6 -3 6 C-3.33 6.99 -3.66 7.98 -4 9 C-4.66 7.68 -5.32 6.36 -6 5 C-4.68 4.67 -3.36 4.34 -2 4 C-2 3.34 -2 2.68 -2 2 C-1.34 2 -0.68 2 0 2 C0 1.34 0 0.68 0 0 Z " fill="#57606B" transform="translate(531,145)"/>
<path d="M0 0 C-1.6396875 0.61875 -1.6396875 0.61875 -3.3125 1.25 C-6.51015942 2.60285591 -8.20653426 3.94055844 -10 7 C-11.32 6.67 -12.64 6.34 -14 6 C-4.74576271 -2.37288136 -4.74576271 -2.37288136 0 0 Z " fill="#BBA75C" transform="translate(198,97)"/>
<path d="M0 0 C7.57142857 4 7.57142857 4 10 8 C8.35 7.67 6.7 7.34 5 7 C4.67 6.01 4.34 5.02 4 4 C3.01 4 2.02 4 1 4 C0.67 2.68 0.34 1.36 0 0 Z " fill="#ECD066" transform="translate(325,60)"/>
<path d="M0 0 C0.66 0.33 1.32 0.66 2 1 C-0.15344283 3.40243465 -1.96874765 4.60244944 -5 5.6875 C-5.680625 5.93886719 -6.36125 6.19023438 -7.0625 6.44921875 C-9 7 -9 7 -12 7 C-8.18660874 3.64883798 -4.7349034 1.6974182 0 0 Z " fill="#EDDC7A" transform="translate(143,48)"/>
<path d="M0 0 C2 1 2 1 4 3 C4.36933645 5.75372909 4.18336678 8.20365661 4 11 C4.66 11.33 5.32 11.66 6 12 C5.01 13.485 5.01 13.485 4 15 C3.32779649 13.06441401 2.66241923 11.12645628 2 9.1875 C1.62875 8.10855469 1.2575 7.02960938 0.875 5.91796875 C0 3 0 3 0 0 Z " fill="#747F85" transform="translate(53,249)"/>
<path d="M0 0 C1.43861294 0.08746284 2.87597508 0.19565348 4.3125 0.3125 C5.11300781 0.37050781 5.91351563 0.42851563 6.73828125 0.48828125 C9 1 9 1 12 4 C8.7 3.67 5.4 3.34 2 3 C2 2.34 2 1.68 2 1 C1.34 0.67 0.68 0.34 0 0 Z " fill="#A99D70" transform="translate(316,97)"/>
<path d="M0 0 C4.97093824 0.41153737 9.44508386 0.79600832 14 3 C14 3.33 14 3.66 14 4 C8.34605369 4.34615998 4.96993194 3.43425238 0 1 C0 0.67 0 0.34 0 0 Z " fill="#EBD574" transform="translate(262,33)"/>
<path d="M0 0 C0.144375 0.61875 0.28875 1.2375 0.4375 1.875 C0.93152225 4.03258322 0.93152225 4.03258322 2 6 C-0.97 6.66 -3.94 7.32 -7 8 C-1.125 1.125 -1.125 1.125 0 0 Z " fill="#4E5A64" transform="translate(321,232)"/>
<path d="M0 0 C1.15837573 3.47512718 0.77265943 5.13670286 0.0625 8.6875 C-0.13214844 9.68136719 -0.32679688 10.67523438 -0.52734375 11.69921875 C-0.68332031 12.45847656 -0.83929688 13.21773437 -1 14 C-1.33 14 -1.66 14 -2 14 C-2.2236337 12.58566794 -2.42826476 11.16832382 -2.625 9.75 C-2.74101562 8.96109375 -2.85703125 8.1721875 -2.9765625 7.359375 C-3.00341607 4.6561152 -2.4028199 3.28084387 -1 1 C-0.67 0.67 -0.34 0.34 0 0 Z " fill="#D7C88E" transform="translate(139,183)"/>
<path d="M0 0 C1.32 0.66 2.64 1.32 4 2 C2.824375 2.928125 2.824375 2.928125 1.625 3.875 C-0.96837647 5.89858661 -0.96837647 5.89858661 -3 8 C-3 6.35 -3 4.7 -3 3 C-2.01 2.67 -1.02 2.34 0 2 C0 1.34 0 0.68 0 0 Z " fill="#ACABA8" transform="translate(163,139)"/>
<path d="M0 0 C0.66 0 1.32 0 2 0 C0.98823563 3.40320742 0.35156418 4.75725331 -2.625 6.8125 C-3.40875 7.204375 -4.1925 7.59625 -5 8 C-4.67 6.35 -4.34 4.7 -4 3 C-3.01 2.67 -2.02 2.34 -1 2 C-0.67 1.34 -0.34 0.68 0 0 Z " fill="#49525C" transform="translate(379,297)"/>
<path d="M0 0 C4.75 0.875 4.75 0.875 7 2 C7 2.66 7 3.32 7 4 C7.66 4.33 8.32 4.66 9 5 C6.69 5 4.38 5 2 5 C2 3.68 2 2.36 2 1 C1.34 0.67 0.68 0.34 0 0 Z " fill="#EACF60" transform="translate(190,286)"/>
<path d="M0 0 C2.31 0.33 4.62 0.66 7 1 C7.33 1.99 7.66 2.98 8 4 C7.67 4.66 7.34 5.32 7 6 C3.63279613 4.60667426 2.0140476 3.0210714 0 0 Z " fill="#B5B2AA" transform="translate(419,273)"/>
<path d="M0 0 C1.46726798 3.81489674 0.43336419 6.29011622 -1 10 C-1.66 10 -2.32 10 -3 10 C-3.33 11.32 -3.66 12.64 -4 14 C-3.46148032 8.72250715 -2.22656164 4.74354436 0 0 Z " fill="#D8B93A" transform="translate(145,150)"/>
<path d="M0 0 C-0.34879632 3.25543229 -1.02133261 4.01873107 -3.5625 6.25 C-4.366875 6.8275 -5.17125 7.405 -6 8 C-6 6.68 -6 5.36 -6 4 C-5.34 4 -4.68 4 -4 4 C-4 3.01 -4 2.02 -4 1 C-2 0 -2 0 0 0 Z " fill="#616874" transform="translate(543,135)"/>
<path d="M0 0 C3.94139078 1.66751148 6.7892812 4.22710649 10 7 C9.01 7.495 9.01 7.495 8 8 C6.0546875 7.109375 6.0546875 7.109375 3.875 5.75 C3.15054687 5.31171875 2.42609375 4.8734375 1.6796875 4.421875 C1.12539063 3.95265625 0.57109375 3.4834375 0 3 C0 2.01 0 1.02 0 0 Z " fill="#AC9D6B" transform="translate(389,132)"/>
<path d="M0 0 C0.66 0.33 1.32 0.66 2 1 C1.0409375 2.1446875 1.0409375 2.1446875 0.0625 3.3125 C-2.14232781 5.88246713 -2.14232781 5.88246713 -3 9 C-3.66 9 -4.32 9 -5 9 C-5.33 9.66 -5.66 10.32 -6 11 C-6 9.35 -6 7.7 -6 6 C-5.01 5.67 -4.02 5.34 -3 5 C-1.8499169 3.03327085 -1.8499169 3.03327085 -1 1 C-0.67 0.67 -0.34 0.34 0 0 Z " fill="#E1BF30" transform="translate(163,119)"/>
<path d="M0 0 C-0.61875 0.28875 -1.2375 0.5775 -1.875 0.875 C-4.13325765 1.93720042 -4.13325765 1.93720042 -6 4 C-8.625 4.125 -8.625 4.125 -11 4 C-10.67 3.01 -10.34 2.02 -10 1 C-6.59437148 0.22157062 -3.49234244 -0.09978121 0 0 Z " fill="#343D3C" transform="translate(235,304)"/>
<path d="M0 0 C1.32 0 2.64 0 4 0 C4 0.66 4 1.32 4 2 C5.65 2.33 7.3 2.66 9 3 C9 3.66 9 4.32 9 5 C9.99 5.33 10.98 5.66 12 6 C7.24518354 5.42365861 4.02951788 3.44931479 0 1 C0 0.67 0 0.34 0 0 Z " fill="#CAAE37" transform="translate(92,285)"/>
<path d="M0 0 C1.9375 0.5 1.9375 0.5 4 2 C4.68790422 4.69658452 4.81946464 7.2017019 5 10 C0.07692308 5.69230769 0.07692308 5.69230769 -0.3125 2.1875 C-0.209375 1.465625 -0.10625 0.74375 0 0 Z " fill="#DDBD29" transform="translate(65,257)"/>
<path d="M0 0 C2.625 -0.1875 2.625 -0.1875 5 0 C2.33333333 2.66666667 -0.33333333 5.33333333 -3 8 C-2.45276317 4.62537285 -1.9451 2.91765 0 0 Z " fill="#5C656E" transform="translate(487,188)"/>
<path d="M0 0 C3.93306853 0.54880026 7.41353557 1.25800299 11 3 C11.33 3.66 11.66 4.32 12 5 C7.61110675 4.33501617 4.0188515 2.81242323 0 1 C0 0.67 0 0.34 0 0 Z " fill="#D4B742" transform="translate(344,107)"/>
<path d="M0 0 C0.33 0.66 0.66 1.32 1 2 C-1.25283313 5.31996462 -3.80800833 7.58443874 -7 10 C-7.66 9.67 -8.32 9.34 -9 9 C-6.03 6.03 -3.06 3.06 0 0 Z " fill="#707B85" transform="translate(469,83)"/>
<path d="M0 0 C3.86648272 1.04097612 7.49461443 2.03698408 11 4 C9.4375 4.75 9.4375 4.75 7 5 C4.49713591 3.86915563 2.32992278 2.47860484 0 1 C0 0.67 0 0.34 0 0 Z " fill="#A89B72" transform="translate(328,101)"/>
<path d="M0 0 C0.99 0.99 1.98 1.98 3 3 C2.67 3.99 2.34 4.98 2 6 C2.33 6.66 2.66 7.32 3 8 C1.0625 7.1875 1.0625 7.1875 -1 6 C-1.33 5.01 -1.66 4.02 -2 3 C-1.34 3 -0.68 3 0 3 C0 2.01 0 1.02 0 0 Z " fill="#939290" transform="translate(476,322)"/>
<path d="M0 0 C0.66 0 1.32 0 2 0 C2 1.32 2 2.64 2 4 C2.99 3.67 3.98 3.34 5 3 C5 4.98 5 6.96 5 9 C0.125 4.375 0.125 4.375 -1 1 C-0.67 0.67 -0.34 0.34 0 0 Z " fill="#6E7A83" transform="translate(80,305)"/>
<path d="M0 0 C3.43595166 1.52708963 6.11912454 3.59927045 9 6 C8.484375 5.855625 7.96875 5.71125 7.4375 5.5625 C4.31490429 4.84190099 1.17449308 4.42733561 -2 4 C-1.34 2.68 -0.68 1.36 0 0 Z " fill="#484B2E" transform="translate(86,282)"/>
<path d="M0 0 C0.33 0 0.66 0 1 0 C1 1.98 1 3.96 1 6 C0.01 6.33 -0.98 6.66 -2 7 C-2.33 7.99 -2.66 8.98 -3 10 C-2.67 7.36 -2.34 4.72 -2 2 C-1.34 2 -0.68 2 0 2 C0 1.34 0 0.68 0 0 Z " fill="#E8C329" transform="translate(67,126)"/>
<path d="M0 0 C3.59391114 1.33488128 6.75490696 2.96022723 10 5 C8.3125 5.6875 8.3125 5.6875 6 6 C3.3125 4.75 3.3125 4.75 1 3 C0.67 2.01 0.34 1.02 0 0 Z " fill="#AF9F68" transform="translate(354,112)"/>
<path d="M0 0 C1.98 1.65 3.96 3.3 6 5 C3 6 3 6 0.8125 5.0625 C0.214375 4.711875 -0.38375 4.36125 -1 4 C-0.67 2.68 -0.34 1.36 0 0 Z " fill="#464730" transform="translate(74,272)"/>
<path d="M0 0 C3.465 1.98 3.465 1.98 7 4 C7 4.99 7 5.98 7 7 C6.01 7 5.02 7 4 7 C0 2.65714286 0 2.65714286 0 0 Z " fill="#E0C540" transform="translate(162,268)"/>
<path d="M0 0 C0.99 0 1.98 0 3 0 C2.67 1.65 2.34 3.3 2 5 C0.68 5 -0.64 5 -2 5 C-2 4.01 -2 3.02 -2 2 C-1.34 2 -0.68 2 0 2 C0 1.34 0 0.68 0 0 Z " fill="#3B4957" transform="translate(62,266)"/>
<path d="M0 0 C0.66 0.33 1.32 0.66 2 1 C1.67 2.32 1.34 3.64 1 5 C-1.31 5.66 -3.62 6.32 -6 7 C-4.02 4.69 -2.04 2.38 0 0 Z " fill="#83898F" transform="translate(345,207)"/>
<path d="M0 0 C0.66 1.32 1.32 2.64 2 4 C0.68 5.32 -0.64 6.64 -2 8 C-2.125 5.125 -2.125 5.125 -2 2 C-1.34 1.34 -0.68 0.68 0 0 Z " fill="#535B67" transform="translate(508,166)"/>
<path d="M0 0 C0.66 0 1.32 0 2 0 C2.41176754 3.60296594 2.1535853 4.78402067 0 7.8125 C-0.66 8.534375 -1.32 9.25625 -2 10 C-1.46274105 6.62294375 -0.88935377 3.303314 0 0 Z " fill="#B3A462" transform="translate(142,160)"/>
<path d="M0 0 C0.6875 1.6875 0.6875 1.6875 1 4 C-0.3125 6.75 -0.3125 6.75 -2 9 C-2.66 9 -3.32 9 -4 9 C-2.94124926 5.59687262 -1.99097846 2.98646769 0 0 Z " fill="#ECD973" transform="translate(69,119)"/>
<path d="M0 0 C3.3 0.99 6.6 1.98 10 3 C10 3.33 10 3.66 10 4 C7.36 4 4.72 4 2 4 C1.34 2.68 0.68 1.36 0 0 Z " fill="#E8C43B" transform="translate(276,37)"/>
<path d="M0 0 C0.66 0.66 1.32 1.32 2 2 C1.01 3.32 0.02 4.64 -1 6 C-1.99 5.67 -2.98 5.34 -4 5 C-2.25 1.125 -2.25 1.125 0 0 Z " fill="#5F676F" transform="translate(356,320)"/>
<path d="M0 0 C0 0.99 0 1.98 0 3 C-3.83887763 4.48320272 -6.06204091 5.22419163 -10 4 C-8.71086513 3.32845067 -7.41859796 2.66291141 -6.125 2 C-5.40570313 1.62875 -4.68640625 1.2575 -3.9453125 0.875 C-2 0 -2 0 0 0 Z " fill="#58502B" transform="translate(253,294)"/>
<path d="M0 0 C0.99 0.33 1.98 0.66 3 1 C0.03 3.475 0.03 3.475 -3 6 C-3.33 5.01 -3.66 4.02 -4 3 C-3.34 3 -2.68 3 -2 3 C-2 2.34 -2 1.68 -2 1 C-1.34 0.67 -0.68 0.34 0 0 Z " fill="#424A56" transform="translate(396,280)"/>
<path d="M0 0 C0.99 0 1.98 0 3 0 C3.33 1.98 3.66 3.96 4 6 C3.01 5.67 2.02 5.34 1 5 C0.67 3.35 0.34 1.7 0 0 Z " fill="#E5CE50" transform="translate(140,233)"/>
<path d="M0 0 C0.99 0.33 1.98 0.66 3 1 C1.02 2.98 -0.96 4.96 -3 7 C-3.66 6.67 -4.32 6.34 -5 6 C-3.35 4.02 -1.7 2.04 0 0 Z " fill="#434F58" transform="translate(371,182)"/>
<path d="M0 0 C0.33 0.99 0.66 1.98 1 3 C-0.65 4.65 -2.3 6.3 -4 8 C-4.66 7.67 -5.32 7.34 -6 7 C-4.02 4.69 -2.04 2.38 0 0 Z " fill="#444F58" transform="translate(395,158)"/>
<path d="M0 0 C2.25 0.125 2.25 0.125 5 1 C7.3125 4.0625 7.3125 4.0625 9 7 C5.18315774 5.44499019 2.80804268 2.96404505 0 0 Z " fill="#D1B742" transform="translate(393,134)"/>
<path d="M0 0 C6.52307692 0.49230769 6.52307692 0.49230769 8.9375 3.0625 C9.288125 3.701875 9.63875 4.34125 10 5 C8.51800098 4.55090939 7.03944764 4.09043436 5.5625 3.625 C4.73878906 3.36976562 3.91507812 3.11453125 3.06640625 2.8515625 C1 2 1 2 0 0 Z " fill="#D8B93E" transform="translate(334,102)"/>
<path d="M0 0 C3.37503669 1.1858237 5.64722731 2.27573689 8 5 C5.6875 5.3125 5.6875 5.3125 3 5 C1.1875 2.5 1.1875 2.5 0 0 Z " fill="#737B88" transform="translate(520,65)"/>
<path d="M0 0 C0.66 0.33 1.32 0.66 2 1 C-0.25 3.5625 -0.25 3.5625 -3 6 C-4.32 5.67 -5.64 5.34 -7 5 C-4.69 3.35 -2.38 1.7 0 0 Z " fill="#E3C432" transform="translate(135,53)"/>
<path d="M0 0 C-3.44450737 2.29633824 -5.93812283 2.54016485 -10 3 C-6.81859267 -0.48439851 -4.56758339 -1.41752588 0 0 Z " fill="#A1987D" transform="translate(216,91)"/>
<path d="M0 0 C0.66 0 1.32 0 2 0 C1.60196439 2.88575819 1.20990931 3.82189513 -1.0625 5.75 C-1.701875 6.1625 -2.34125 6.575 -3 7 C-1.125 1.125 -1.125 1.125 0 0 Z " fill="#EAD35B" transform="translate(103,75)"/>
</svg>
